<svg xmlns="http://www.w3.org/2000/svg" width="282.999" height="46" viewBox="0 0 282.999 46"><path d="M39.608 11.317v28.291H5.658V11.317H0v33.95h45.267v-33.95h-5.659zM0 0h45.267v5.658H0zm87.301 21.563v8.613h-5.067v-7.804c0-2.146-1.026-3.172-2.705-3.172a2.94 2.94 0 0 0-2.301 1.244c.031.373.062.746.062 1.12v8.612h-5.037v-7.804c0-2.146-1.057-3.172-2.705-3.172a2.85 2.85 0 0 0-2.27 1.338v9.638h-5.036v-15.08h5.037v.902a5.308 5.308 0 0 1 3.762-1.368 5.925 5.925 0 0 1 4.632 2.02 7.364 7.364 0 0 1 5.348-2.02c3.607 0 6.28 2.643 6.28 6.933zm18.903 1.057a8.179 8.179 0 0 1-16.354 0c0-4.539 3.42-7.866 8.177-7.866s8.177 3.327 8.177 7.867zm-4.757.031a3.407 3.407 0 1 0-6.809 0 3.412 3.412 0 1 0 6.809 0zm12.529 6.312c0 4.633-1.46 7.338-7.43 7.462l-.436-4.197c2.208-.217 2.798-.87 2.798-2.612v-14.52h5.068zm-5.503-19.06a2.956 2.956 0 1 1 2.954 2.83 2.874 2.874 0 0 1-2.954-2.83zm8.611.001a2.957 2.957 0 1 1 2.954 2.83 2.856 2.856 0 0 1-2.954-2.83zm5.503 20.272h-5.036v-15.08h5.036zm28.511-8.613v8.613h-5.068v-7.804c0-2.146-1.026-3.172-2.705-3.172a2.94 2.94 0 0 0-2.3 1.244c.03.373.061.746.061 1.12v8.612h-5.037v-7.804c0-2.146-1.057-3.172-2.705-3.172a2.85 2.85 0 0 0-2.27 1.338v9.638h-5.036v-15.08h5.037v.902a5.31 5.31 0 0 1 3.762-1.368 5.925 5.925 0 0 1 4.632 2.02 7.364 7.364 0 0 1 5.348-2.02c3.607 0 6.28 2.643 6.28 6.933zM170 22.62a8.179 8.179 0 0 1-16.354 0c0-4.539 3.42-7.866 8.177-7.866S170 18.081 170 22.621zm-4.757.031a3.407 3.407 0 1 0-6.809 0 3.412 3.412 0 1 0 6.809 0zm40.471-1.079v8.583h-5.051v-7.778c0-2.138-1.023-3.16-2.696-3.16a2.932 2.932 0 0 0-2.293 1.239c.031.372.062.744.062 1.116v8.583h-5.02v-7.778c0-2.138-1.054-3.16-2.696-3.16a2.842 2.842 0 0 0-2.263 1.332v9.606h-5.02v-15.03h5.02v.9a5.292 5.292 0 0 1 3.75-1.364 5.908 5.908 0 0 1 4.618 2.014 7.339 7.339 0 0 1 5.33-2.014c3.594 0 6.26 2.634 6.26 6.91zm19.211 8.583h-5.02v-.836a7.503 7.503 0 0 1-4.121 1.146 7.619 7.619 0 0 1-7.468-7.84 7.6 7.6 0 0 1 7.468-7.84 7.503 7.503 0 0 1 4.121 1.147v-.806h5.02zm-5.02-5.206v-4.648a3.891 3.891 0 0 0-3.13-1.425 3.583 3.583 0 0 0-3.532 3.75 3.556 3.556 0 0 0 3.532 3.718 3.857 3.857 0 0 0 3.13-1.395zm24.015-3.377v8.583h-5.051v-7.778c0-2.138-1.084-3.16-2.727-3.16a3.868 3.868 0 0 0-2.789 1.518v9.42h-5.02v-15.03h5.02v1.024a6.43 6.43 0 0 1 4.153-1.488c3.811 0 6.414 2.634 6.414 6.91zm19.212 8.336c0 4.71-3.347 7.437-8.057 7.437-4.556 0-7.871-2.603-8.12-6.508h4.959c.248 1.395 1.302 2.262 3.161 2.262a2.862 2.862 0 0 0 3.037-3.098v-1.426a7.925 7.925 0 0 1-4.09 1.054 7.515 7.515 0 0 1 0-15.03 7.649 7.649 0 0 1 4.09 1.116v-.59h5.02zm-5.02-5.672v-4.152a3.937 3.937 0 0 0-3.1-1.394 3.425 3.425 0 0 0-3.532 3.625 3.493 3.493 0 0 0 3.533 3.316 3.937 3.937 0 0 0 3.099-1.395zm24.387 5.919h-5.02v-.836a7.503 7.503 0 0 1-4.122 1.146 7.619 7.619 0 0 1-7.468-7.84 7.6 7.6 0 0 1 7.468-7.84 7.503 7.503 0 0 1 4.121 1.147v-.806h5.02zm-5.02-5.206v-4.648a3.891 3.891 0 0 0-3.13-1.425 3.583 3.583 0 0 0-3.533 3.75 3.556 3.556 0 0 0 3.533 3.718 3.857 3.857 0 0 0 3.13-1.395z" fill="#ff8873"/></svg>