<svg xmlns="http://www.w3.org/2000/svg" width="360" height="483" viewBox="0 0 360 483"><defs><style>.a{fill:#fff}</style></defs><path class="a" d="M171.78 115.829v35.835h-21.087v-32.471c0-8.927-4.27-13.196-11.256-13.196-3.234 0-6.468 1.423-9.573 5.175.129 1.553.258 3.105.258 4.657v35.835h-20.956v-32.471c0-8.927-4.399-13.196-11.256-13.196-3.234 0-6.339 1.552-9.444 5.563v40.104H67.508V88.921h20.958v3.751a22.088 22.088 0 0 1 15.654-5.692c7.891 0 14.619 2.975 19.276 8.409 6.597-5.822 12.936-8.409 22.251-8.409 15.006 0 26.132 10.996 26.132 28.849zm83.397 4.399c0 19.146-14.232 33.377-34.025 33.377s-34.023-14.231-34.023-33.377c0-18.888 14.23-32.73 34.023-32.73s34.025 13.842 34.025 32.73zm-19.795.13c0-8.151-5.69-14.75-14.1-14.75-8.539 0-14.23 6.599-14.23 14.75 0 8.408 5.691 15.135 14.23 15.135 8.41 0 14.1-6.727 14.1-15.136zm57.138 26.261c0 19.276-6.08 30.531-30.919 31.048l-1.811-17.464c9.184-.906 11.642-3.623 11.642-10.867V88.92h21.087zm-22.9-79.303a11.959 11.959 0 0 1 12.291-11.902c6.855 0 12.29 5.046 12.29 11.902 0 6.727-5.435 11.773-12.29 11.773-6.728 0-12.291-5.046-12.291-11.773zM65.602 196.72c0-6.857 5.433-11.902 12.29-11.902a11.96 11.96 0 0 1 12.29 11.902c0 6.727-5.563 11.772-12.29 11.772-6.857 0-12.29-5.045-12.29-11.772zM88.5 281.068H67.543v-62.744H88.5zm125.25-35.835v35.835h-21.087v-32.472c0-8.926-4.27-13.196-11.255-13.196-3.234 0-6.469 1.424-9.574 5.175.13 1.553.259 3.105.259 4.658v35.835h-20.957v-32.472c0-8.926-4.398-13.196-11.255-13.196-3.234 0-6.34 1.554-9.444 5.564v40.104h-20.958v-62.744h20.958v3.751a22.094 22.094 0 0 1 15.654-5.692c7.89 0 14.618 2.976 19.275 8.41 6.597-5.823 12.937-8.41 22.252-8.41 15.006 0 26.132 10.997 26.132 28.85zm84.195 4.399c0 19.146-14.231 33.376-34.025 33.376s-34.023-14.23-34.023-33.376c0-18.888 14.23-32.731 34.023-32.731s34.025 13.843 34.025 32.73zm-19.795.129c0-8.15-5.69-14.748-14.1-14.748-8.538 0-14.23 6.597-14.23 14.748 0 8.409 5.692 15.136 14.23 15.136 8.41 0 14.1-6.727 14.1-15.136z"/><path class="a" d="M331.875 56.111v275.625H28.125V56.111H0v303.75h360V56.111h-28.125zM0 0h360v28.125H0zm102.67 435.588v25.62H87.596v-23.215c0-6.382-3.053-9.434-8.047-9.434-2.312 0-4.625 1.017-6.845 3.7.094 1.11.187 2.22.187 3.33v25.618H57.906v-23.214c0-6.382-3.145-9.434-8.046-9.434-2.313 0-4.533 1.11-6.753 3.977v28.671H28.125V416.35h14.982v2.682a15.795 15.795 0 0 1 11.191-4.069 17.628 17.628 0 0 1 13.782 6.013 21.895 21.895 0 0 1 15.908-6.013c10.728 0 18.683 7.862 18.683 20.625zm57.35 25.619h-14.984v-2.496a22.395 22.395 0 0 1-12.301 3.422c-12.115 0-22.29-10.082-22.29-23.401 0-13.41 10.175-23.4 22.29-23.4a22.395 22.395 0 0 1 12.301 3.424v-2.406h14.984zm-14.984-15.538v-13.873a11.615 11.615 0 0 0-9.34-4.254c-6.105 0-10.545 4.994-10.545 11.19 0 6.197 4.44 11.1 10.544 11.1a11.514 11.514 0 0 0 9.341-4.163zm71.684-10.081v25.62h-15.077v-23.215c0-6.382-3.237-9.434-8.139-9.434-2.774 0-5.733 1.573-8.324 4.532v28.116h-14.982V416.35h14.982v3.052a19.197 19.197 0 0 1 12.394-4.439c11.376 0 19.146 7.862 19.146 20.625zm57.346 24.88c0 14.057-9.99 22.196-24.048 22.196-13.596 0-23.49-7.768-24.231-19.423h14.797c.74 4.163 3.886 6.753 9.434 6.753 5.087 0 9.065-3.145 9.065-9.25v-4.253a23.664 23.664 0 0 1-12.208 3.144c-12.117 0-22.291-9.71-22.291-21.828 0-13.688 10.174-23.028 22.29-23.028a22.84 22.84 0 0 1 12.209 3.328v-1.757h14.983zm-14.983-16.927v-12.393a11.75 11.75 0 0 0-9.25-4.161c-6.104 0-10.543 4.346-10.543 10.82 0 4.902 4.44 9.898 10.543 9.898a11.746 11.746 0 0 0 9.25-4.164zm72.792 17.666h-14.984v-2.496a22.395 22.395 0 0 1-12.3 3.422c-12.116 0-22.29-10.082-22.29-23.401 0-13.41 10.174-23.4 22.29-23.4a22.395 22.395 0 0 1 12.3 3.424v-2.406h14.984zm-14.984-15.538v-13.873a11.615 11.615 0 0 0-9.34-4.254c-6.104 0-10.544 4.994-10.544 11.19 0 6.197 4.44 11.1 10.544 11.1a11.514 11.514 0 0 0 9.34-4.163z"/></svg>