<svg xmlns="http://www.w3.org/2000/svg" viewBox="0 0 940 180"><defs><style>.cls-1{fill:#00a0e9}.cls-4{fill:#f2f2f2}</style></defs><g id="elements"><path class="cls-1" d="M0 0h940v180H0z"/><path fill="#fff" d="M402.83 39.91h1v102h-1z" opacity=".3"/><path class="cls-4" d="M450.01 39.78H585.9v19.78H450.01z"/><path class="cls-1" d="M456.65 56.84v-8.37h1.45v.19a2.59 2.59 0 0 1 1.29-.35 2.83 2.83 0 1 1 0 5.66 2.79 2.79 0 0 1-1.3-.34v3.21zm1.44-4.7a1.63 1.63 0 0 0 1.29.57 1.47 1.47 0 0 0 1.44-1.58 1.44 1.44 0 0 0-1.44-1.55 1.61 1.61 0 0 0-1.28.57zM464 47.4a.95.95 0 1 1 0-1.89.95.95 0 1 1 0 1.89zm-.78 6.4v-5.33h1.57v5.33zm6.1 0l-1.1-1.72-1.13 1.72h-1.59l1.9-2.8-1.63-2.52h1.59l.87 1.43.89-1.43h1.6L469.05 51l1.87 2.81zm3.13-6.4a.95.95 0 1 1 1-.94 1 1 0 0 1-1 .94zm-.77 6.4v-5.33h1.56v5.33zm4.26 0L474 48.47h1.57s.74 2.61.81 2.9.17.82.21 1.06c.05-.24.18-.86.24-1.07l.8-2.89h1.56l-1.94 5.33zm4.51-1.24c4.05-.73 5.11-2.69 5.43-4.82l-5.76.08v-1.48h5.45a1.59 1.59 0 0 0 1.49 1.77 2.38 2.38 0 0 0 .45-.05 7 7 0 0 1-5.93 5.87zm6.67-4.7a1.32 1.32 0 1 1 1.32-1.31 1.32 1.32 0 0 1-1.32 1.31zm0-1.85a.54.54 0 0 0-.54.54.55.55 0 0 0 .54.54.54.54 0 0 0 .54-.54.53.53 0 0 0-.54-.55zm10.02 3.5a9 9 0 0 1-7.25 4.28V46h1.61c0 .23-.09 4.22-.12 5.89a7.29 7.29 0 0 0 4.74-3.81zm8.29 4.49a38.52 38.52 0 0 0-7.22-1.66l.63-1.37a39.62 39.62 0 0 1 7.05 1.49zm-.16-5.83a37.58 37.58 0 0 0-6.44-.83l.44-1.33a43.53 43.53 0 0 1 6.4.68zm-.71 2.65a29.69 29.69 0 0 0-5.57-1l.55-1.32a32.57 32.57 0 0 1 5.48.9zm7.04-.61c-.28 1.62-1.11 2.9-3.37 3.74L507 52.69c2.77-.77 3.13-2.2 3.13-4v-.55h1.6a14.66 14.66 0 0 1-.06 1.51 3 3 0 0 0 2-2.11c-1.48 0-5.79.06-6.37.06v-1.4h8.09a5 5 0 0 1-3.09 4.85zm11.65 3.61c-.13-.34-.27-.67-.41-1-2.39.38-4.86.66-6.52.83l-.24-1.57c.35 0 .72 0 1.11-.07a39.42 39.42 0 0 0 1.88-6.13l1.69.37a49.31 49.31 0 0 1-2 5.63c1.25-.11 2.47-.24 3.4-.35a12.76 12.76 0 0 0-1.43-2.12l1.43-.66a17.68 17.68 0 0 1 2.56 4.31zm2.15-.53v-1.44h5l.27-3.94H526V46.5h6.34l-.34 5.35h1.64v1.44zm9.05-2.74V49h8v1.52zm15.69-1.65c0 2.76-.71 4.23-4 5.1L545 52.69c3.09-.44 3.67-1.68 3.69-3.79h-2.13v2.21H545V48.9h-1.77v-1.38H545v-1.7h1.49v1.7h2.13v-1.7h.82a9.41 9.41 0 0 1 .35 1.47l.35-.06v.29h1.76v1.38zm-.14-1.83a9.3 9.3 0 0 0-.44-1.61l.77-.11a7.89 7.89 0 0 1 .48 1.55zm1.1-.15a8.61 8.61 0 0 0-.47-1.58l.78-.09a7.23 7.23 0 0 1 .5 1.51zm1.61 3.63V49h8v1.52zm14.14 2.29l-.59.35a12.71 12.71 0 0 0-1-1.58l.88-.47h-1v-1.27h2.9v-.6H565v-.85h-.65v1.48a5.12 5.12 0 0 0 .66-.31V51c-.18.1-.41.2-.66.31v2.85H563v-2.35c-.48.16-.94.31-1.3.39l-.21-1.46c.45-.09 1-.22 1.51-.38v-1.94h-.35a10.4 10.4 0 0 1-.2 1.24l-1-.57a12.11 12.11 0 0 0 .32-2.78v-.19l1 .11v.9h.23v-1.7h1.32v1.7h.68V48h1.89v-.6h-1.62v-1.25h1.62v-.72h1.37v.72H570v1.26h-1.71V48h1.92v1.26h-.73v.6h.66v1.27h-.66v1.3c0 1.37-.11 1.66-2.1 1.7zm1.23-1.7h-1.46a9.62 9.62 0 0 1 .86 1.34l-.43.25h.4c.62 0 .63 0 .63-.47zm10.39 2.97a10.41 10.41 0 0 1-3-1.3l.63-.7h-2.38l.68.71a8.6 8.6 0 0 1-2.94 1.29l-.77-1.28a9.14 9.14 0 0 0 2.3-.72h-2.38v-1.25h.65v-4.61h1.93v-.82h1.35v.82h.76v-.82h1.34v.82h2v4.61h.62v1.25h-2.4a9 9 0 0 0 2.35.74zm-5.09-6.64h-.75v1h.75zm0 2.19h-.75v1.2h.75zm2-2.19h-.76v1h.76zm0 2.19h-.76v1.2h.76zm2-2.19h-.78v1h.78zm0 2.19h-.78v1.2h.78z"/><path class="cls-4" d="M607.4 54.41v-5.33a1 1 0 0 0-1.11-1 1.21 1.21 0 0 0-1.11.72 1 1 0 0 1 0 .24v5.37h-2.1v-5.29a1 1 0 0 0-1.1-1 1.15 1.15 0 0 0-1.07.72v5.61h-2.09v-7.9h2.09v.19a2.66 2.66 0 0 1 1.35-.4 3 3 0 0 1 2.19.83 3.11 3.11 0 0 1 2.08-.83 2.66 2.66 0 0 1 2.96 2.66v5.44zm7.6.25a4.18 4.18 0 1 1 4.2-4.18 4.08 4.08 0 0 1-4.2 4.18zm2.12-4.18a2.12 2.12 0 1 0-2.12 2.29 2.12 2.12 0 0 0 2.12-2.29zm1.76 8.52v-2c1.14 0 1.77-.75 1.77-2.22v-8.22h2.27v8.36c0 2.61-1.54 4.11-4 4.11zm2.88-14a1.4 1.4 0 0 1-1.43-1.38 1.42 1.42 0 0 1 1.43-1.41 1.44 1.44 0 0 1 1.45 1.41 1.42 1.42 0 0 1-1.45 1.38zm4.24 0a1.4 1.4 0 0 1-1.43-1.38A1.44 1.44 0 1 1 626 45zm-1.15 9.44v-7.88h2.31v7.86zm12.71-.02v-5.34a1.05 1.05 0 0 0-1.11-1 1.21 1.21 0 0 0-1.11.72 1 1 0 0 1 0 .24v5.38h-2.1v-5.3a1 1 0 0 0-1.1-1 1.14 1.14 0 0 0-1.07.72v5.62H629v-7.9h2.09v.19a2.55 2.55 0 0 1 1.35-.41 2.94 2.94 0 0 1 2.19.84 3.12 3.12 0 0 1 2.08-.84 2.66 2.66 0 0 1 2.94 2.66v5.44zm7.6.24a4.18 4.18 0 1 1 4.2-4.17 4.07 4.07 0 0 1-4.2 4.17zm2.12-4.17a2.12 2.12 0 1 0-4.23 0 2.12 2.12 0 1 0 4.23 0zm3.09.89V49.5h5.17v1.87zm15.1 3.04v-5.33a1 1 0 0 0-1.11-1 1.2 1.2 0 0 0-1.11.71 2.18 2.18 0 0 1 0 .25v5.37h-2.09v-5.29a1 1 0 0 0-1.11-1 1.12 1.12 0 0 0-1.06.71v5.62h-2.1v-7.9H659v.19a2.63 2.63 0 0 1 1.35-.4 2.91 2.91 0 0 1 2.18.83 3.15 3.15 0 0 1 2.08-.83 2.65 2.65 0 0 1 3 2.63v5.44zm8.47 0V54a3.05 3.05 0 0 1-1.93.58c-1.79 0-3.12-1-3.12-2.51 0-1.7 1.62-2.69 3.78-2.69a6.25 6.25 0 0 1 1.27.14v-.44c0-.71-.8-1-1.8-1a7.39 7.39 0 0 0-2.28.4v-1.84a8.5 8.5 0 0 1 2.42-.35c1.86 0 3.72.62 3.72 2.46v5.67zm0-3.17a3.14 3.14 0 0 0-1.39-.27c-.61 0-1.74.09-1.74 1 0 .54.45.93 1.35.93a2.62 2.62 0 0 0 1.78-.6zm8.61 3.17v-5.25a1.2 1.2 0 0 0-1.31-1.17 1.37 1.37 0 0 0-1.42 1v5.41h-2.13v-7.85h2.13v.23a3.27 3.27 0 0 1 1.76-.54 2.78 2.78 0 0 1 3.11 2.75v5.41zm6.39-1.99a.82.82 0 0 0-.67.67c0 .33.22.39 1.25.39h1.55a6.41 6.41 0 0 1 1.43.12 2.22 2.22 0 0 1 1.89 2.2c0 1.67-1.72 3.2-4.46 3.2-2.17 0-4.09-1.07-4.09-2.85a1.92 1.92 0 0 1 1-1.72 1.67 1.67 0 0 1-.58-1.28 1.78 1.78 0 0 1 .85-1.54 2.77 2.77 0 0 1-.79-2 3.27 3.27 0 0 1 3.6-3.27 4.3 4.3 0 0 1 1.39.26c.52-.67 1.31-.93 2.69-.93h.11v2.17h-.28a2.48 2.48 0 0 0-.88.11 2.84 2.84 0 0 1 .55 1.65c0 1.74-1.24 3-3.31 3a6 6 0 0 1-1.24-.09zm1.36 2.72h-1.62a.89.89 0 0 0-.8.88c0 .77 1 1.24 2 1.24s2.35-.53 2.35-1.38c-.01-.65-.49-.74-1.93-.74zm-.3-7.07a1.44 1.44 0 0 0-1.64 1.46c0 .78.54 1.33 1.68 1.33a1.41 1.41 0 0 0 1.54-1.37 1.44 1.44 0 0 0-1.58-1.42zm10.23 6.35V54a3 3 0 0 1-1.93.58c-1.78 0-3.12-1-3.11-2.51 0-1.7 1.62-2.69 3.78-2.68a6.27 6.27 0 0 1 1.27.13v-.43c0-.72-.8-1-1.8-1a7.11 7.11 0 0 0-2.28.41v-1.85a8.1 8.1 0 0 1 2.41-.35c1.87 0 3.73.62 3.73 2.45v5.68zm0-3.18a3.16 3.16 0 0 0-1.4-.27c-.6 0-1.74.1-1.74 1 0 .54.46.94 1.35.94a2.6 2.6 0 0 0 1.79-.61zm14.25 3.18a18.74 18.74 0 0 1-3.17.27c-1.66 0-5 0-5-2.69 0-1.69 2.21-2.9 3.59-3.52-.2-.57-.51-.63-.79-.63-.75 0-1.56.46-2.84 1.91-.3.35-.66.75-1 1.2l-1.65-1.3a19.4 19.4 0 0 0 3.22-4.14h-2.88v-1.81h3.7a11.81 11.81 0 0 0 .54-1.42l2.28.35c-.16.38-.31.73-.47 1.07h4v1.81h-4.85c-.27.43-.56.84-.83 1.19a2.9 2.9 0 0 1 1.29-.45 2 2 0 0 1 2.17 1.47c1.42-.5 2.77-.86 3.51-1.08l.8 1.93c-1.31.27-2.74.63-4 1v2.18l-2.08.14c0-.43.05-1 .08-1.55-.83.41-1.73 1-1.73 1.57 0 .78 2 .8 2.57.8a19.43 19.43 0 0 0 3.73-.41zM724.64 53l-.87.52a18.32 18.32 0 0 0-1.39-2.34l1.29-.69h-1.48v-1.85h4.26v-.88h-4.56V46.5h-1v2.19a8.06 8.06 0 0 0 1-.46v2c-.27.15-.6.3-1 .46v4.2H719V51.5c-.72.24-1.39.46-1.92.58l-.31-2.16c.66-.14 1.44-.33 2.23-.56V46.5h-.53a14.08 14.08 0 0 1-.3 1.82l-1.46-.83a18 18 0 0 0 .48-4.11v-.27l1.46.15v1.34h.35v-2.51h1.94v2.51h1v1.29h2.79V45h-2.43v-1.85h2.39v-1.06h2v1.06h2.53V45h-2.53v.9h2.84v1.86h-1.08v.88h1v1.87h-1v1.92c0 2-.17 2.45-3.11 2.5zm1.81-2.51h-2.14a15.41 15.41 0 0 1 1.27 2l-.64.37h.58c.92 0 .93-.07.93-.69zm7.49 4.22l-.68-2h1c.81 0 1-.1 1-1.5v-.89h-1.62a8.82 8.82 0 0 1-1.87 4.63l-1.74-1.57a7.64 7.64 0 0 0 1.72-5.1v-.72h-1.1v-5.09h6.55v5.06h-3.47v.84h3.55c0 .54 0 2-.06 2.87-.08 2.81-.29 3.41-2.67 3.47zm1.3-10.38h-2.58v1.34h2.58zm2.7 7.29v-8.53h1.8v8.53zm.64 1.22h.58c1.43 0 1.43-.08 1.43-.72v-10h2v10.34c0 2-.27 2.46-3.25 2.46zm15.75 2.08v-.61h-4.75v.61h-1.85v-9.18h2.08v-1.23h-2.12v-1.42a15.76 15.76 0 0 1-.74 2.17v9.67h-2v-6.48a6.55 6.55 0 0 1-.8 1l-.44-2.84a12 12 0 0 0 2.11-4.47l1.9.52h8.83v1.91h-2.45v1.23h2.08v9.18zm-4.09-7.4h-.67v5h.68zm2 0h-.65v5h.65zm0-3h-.65v1.23h.65zm2.07 3h-.67v5h.67zm12.69 7.4v-.4h-2.44v.4h-2V50.1a1.71 1.71 0 0 1-.3.09l-.26-1-.32.93a10.65 10.65 0 0 1-.66-1.9v6.68h-2v-6.04A13.68 13.68 0 0 1 758 52l-.72-2.75a11.92 11.92 0 0 0 1.62-3.17h-1.28v-1.9H759v-2.09h2v2.09h1v.28a6 6 0 0 0 2-2.35l2 .33a5.31 5.31 0 0 1-.27.53h3.46v1.7a9.48 9.48 0 0 1-1.62 2.62 11.24 11.24 0 0 0 2.48.87l-.62 2-.39-.12v4.87zm-4.6-7a9.25 9.25 0 0 0 1.9-.66 8.29 8.29 0 0 1-.93-1.21 6.18 6.18 0 0 1-.72.6l-.62-1.45v.89h-.94a5.54 5.54 0 0 0 1.35 1.74zm5.52 1.68a11 11 0 0 1-2-1.11 9.58 9.58 0 0 1-2.1 1.11zm-.92 1.66h-2.44v1.53H767zm-2.39-6.48a6.61 6.61 0 0 0 1.27 1.5 5.51 5.51 0 0 0 1.2-1.5zm16.83 9.7h-1c-3 0-6.45-1.14-6.45-4.54a5.77 5.77 0 0 1 2.5-4.46l-5.42.28-.07-2.11c2.84 0 8.31-.08 11.61-.26l.19 2a10.19 10.19 0 0 0-3.15.35c-1.9.69-3.48 2.26-3.48 4s1.64 2.54 4.21 2.54c.46 0 1 0 1.46-.08zm-.53-5.26a13.87 13.87 0 0 0-1.41-2.37l1.12-.53a14.09 14.09 0 0 1 1.45 2.3zm1.85-.78a13.77 13.77 0 0 0-1.47-2.29l1.1-.53a13.58 13.58 0 0 1 1.47 2.2zm12.54 5.47a20.24 20.24 0 0 1-4.59.54c-5.89 0-5.9-2.75-5.9-3.1a2.8 2.8 0 0 1 .87-1.94l1.87.71a1.3 1.3 0 0 0-.55.93c0 .85 1.54 1.23 3.39 1.23a18.57 18.57 0 0 0 4.81-.69zm-9.81-10.13c1.48-.13 3-.23 4.58-.22.82 0 1.67 0 2.52.08a8.33 8.33 0 0 1 .58 1.58l1.15-.25v1a33.42 33.42 0 0 0-4.57-.33 27 27 0 0 0-4.15.3zm8 1a13.51 13.51 0 0 0-1-2.48l1.29-.22a13.33 13.33 0 0 1 1 2.42zm2-.37a15.92 15.92 0 0 0-1.12-2.41l1.26-.23a13 13 0 0 1 1.08 2.33zm11.13 10.25a3.78 3.78 0 0 1-3.22-1.33 4.73 4.73 0 0 1-1.12 1.6l-1.62-1.46a4.6 4.6 0 0 0 1.7-3.45l1.89.28a9.19 9.19 0 0 1-.27 1.25 2.44 2.44 0 0 0 .87.85v-2.59h-3.22v-.35a6 6 0 0 1-.94.43v2.21c0 2.14-.19 2.66-2.78 2.75l-.58-2.11c1.24 0 1.32-.07 1.32-.74v-1.52c-.45.14-.82.26-1.16.33l-.33-2.1c.38-.06.92-.2 1.49-.35v-2.12h-1.27v-2h1.27V42.1h2v2.17h1v2h-1v1.53a10.68 10.68 0 0 0 1-.38v.7h8.21v1.72h-3v.66h2.6V52h-2.6v.82h.14c.94 0 2 0 3.1-.1l-.54 2zm-4.5-7v-5.25h7.28v5.21zm5.25-2h-3.21v.62h3.21zm0-1.72h-3.21v.58h3.21zm6.71 9.3v1.7h-2v-6.63a6.78 6.78 0 0 1-.91 1l-.5-2.81a10.68 10.68 0 0 0 2.33-4.39l2.12.45a15.18 15.18 0 0 1-1.08 2.89v7.78a11.4 11.4 0 0 0 2.96-2.34l1.55 1.32a13.79 13.79 0 0 1-3.06 2.72zm.42-2.51v-2h1.57v-2.35h-1.33v-2h1.33V42.1h2v2.27h1.51V42.1h2v2.27h1.39v2h-1.39v2.33h1.69v2zm5.13-4.35h-1.51v2.32h1.51zm2.54 8.55a19.59 19.59 0 0 1-3.12-2.67l1.53-1.34a16.53 16.53 0 0 0 3 2.31zm9.22-3.58c-.53 1.16-1.6 2.85-3.23 2.85a2.73 2.73 0 0 1-2.07-1c-1-1.13-1.28-4-1.28-7 0-.86 0-1.75.07-2.63l2.34.08a26.28 26.28 0 0 0-.22 3.47c0 1.27 0 4.25 1.17 4.65h.15c.39 0 .72-.49 1.53-2.65zm3.19 1.65c0-2.52-.88-6.54-3-8.63l2-.84c2 2 3.15 6.19 3.15 8.42v.12zm3.42 1.12a49.58 49.58 0 0 0 2.68-8.29h-2.44v-1.92H841c.12-.6.23-1.17.31-1.66l2.28.19c-.09.47-.21 1-.33 1.47h3.25v1.9h-3.59a69.37 69.37 0 0 1-2.66 8.8zm12 .26a13.43 13.43 0 0 1-2.47.22 13.24 13.24 0 0 1-2.45-.22 2.58 2.58 0 0 1-2.16-2.38 2 2 0 0 1 .44-1.24l1.92.34a.94.94 0 0 0-.36.65c0 .63 1 .8 2.24.8a12.65 12.65 0 0 0 2.77-.33zm-.24-5.71a19.91 19.91 0 0 0-3.23-.3 11.08 11.08 0 0 0-2.39.24l-.15-2a24 24 0 0 1 3-.2 26 26 0 0 1 2.95.18zM863 49.94c-1.14 2.19-3.33 4.74-7.1 4.74-1.85 0-3.54-.83-3.54-3.73v-.11c0-1.92 0-5.58.06-8.2l2.36.09c-.09 1.7-.22 5.55-.22 7.8 0 1.34.48 1.93 1.54 1.93 2.26 0 4.08-1.93 5.15-4.33zm11.55 4.62a14.18 14.18 0 0 0-2.94-2.2 3.18 3.18 0 0 1-3.39 2.37c-2.79 0-3.62-1.43-3.62-2.63 0-1.51 1.36-2.58 3.83-2.58a9.36 9.36 0 0 1 1.18.08v-1H865v-1.82h4.53V45.7h-4.9v-1.84h4.86v-1.5h2.22v1.51h4v1.85h-4v1.08h3.58v1.8h-3.57v1.54a14.86 14.86 0 0 1 3.95 2.33zm-6.37-3.22c-.49 0-1.48.12-1.48.72s.71.76 1.37.76a1.42 1.42 0 0 0 1.55-1.29 5.74 5.74 0 0 0-1.44-.19zm17.4-5.48v2a3.69 3.69 0 0 1 .49 2c0 2.25-1.28 4.35-5.43 5L879.11 53c2.7-.28 3.89-.89 4.47-1.55a2.91 2.91 0 0 1-1 .18h-.12c-1.7 0-2.93-.87-2.93-2.41 0-2 1.89-2.65 3.19-2.67a5.06 5.06 0 0 1 .68 0v-.67h-6.07v-2h6v-1.5h2.18v1.5h4.15v1.93zm-2 2.65a1.53 1.53 0 0 0-1.14-.46 1 1 0 0 0-1 1 .87.87 0 0 0 1 .84 1.09 1.09 0 0 0 1.19-1.11zm-33.99 92.15a12.33 12.33 0 0 1 0-15.84h1.74a11.53 11.53 0 0 0 0 15.84zm5.41-.1v-7.77a18.23 18.23 0 0 1-2.07 4.89l-.75-1.66a21.29 21.29 0 0 0 2.63-5.09h-2.23v-1.34H855V127c-.72.08-1.43.15-2.11.2l-.31-1.46a16.4 16.4 0 0 0 5.33-.86l.63 1.34a16.05 16.05 0 0 1-2.18.56v2.77h2.17v1.34h-2a20.47 20.47 0 0 0 2.37 3.5l-.69 1.51a23.51 23.51 0 0 1-1.87-3.83v8.45zm10-.45c-1.12 0-1.44-.39-1.44-1.5V134h-1.09c-.15 2.52-.8 5.2-3.86 6.64l-.87-1.26c2.74-1.15 3.22-3.36 3.35-5.38h-1.87v-5.83h2a17.48 17.48 0 0 0-1.47-2.57l1.25-.6c.51.78 1.14 1.87 1.49 2.57l-1.11.58h2.25a15.53 15.53 0 0 0 1.45-3.23l1.4.43a16.82 16.82 0 0 1-1.44 2.8h2.06V134H865v4c0 .67 0 .72.5.72h.36c.61 0 .71-.24.8-2.84l1.27.68c-.16 2.82-.43 3.51-1.95 3.51zm.66-10.67h-5.07v3.2h5.07zm7.08 9.36H874c1.53-.06 1.86-.46 1.89-3.23v-1.36h-3.33a10.27 10.27 0 0 1-2.68 6.33l-1.15-1.11a9.57 9.57 0 0 0 2.57-7v-1.23h-1.7v-5.7h7.62v5.73h-4.61v1.63h4.64v2.56c-.1 4.28-.62 4.84-4 4.84zm3.12-11.94H871v3h4.91zm2.92 9.72V126h1.36v10.6zm.79 2.56h.83c1.61 0 1.82-.13 1.82-.93V124.9h1.39v13.37c0 2-.69 2.29-3.47 2.29zm5.8 1.52a11.53 11.53 0 0 0 0-15.84h1.74a12.3 12.3 0 0 1 0 15.84zm-39.04-31.41l10-24.26h1.94l-10 24.26zm34.02-5.48v6.63h-1.79v-6.63h-13.78v-1.71h5v-7.37h8.75v-5h-7.73a20.46 20.46 0 0 1-5 5.47l-1.27-1.37a22.06 22.06 0 0 0 7-9.44l1.76.41c-.44 1.08-.94 2.18-1.51 3.28h17.93v1.65h-9.38v5h8.23v1.68h-8.23v5.69h10.43v1.71zm-1.79-7.4h-7v5.69h7zM572.83 125.5a27.3 27.3 0 0 0 15.11 4.59c8.94 0 10.89-5 10.89-7.24 0-2.39-1.64-4.72-4.91-5.79a17.77 17.77 0 0 0-5-.57 37.66 37.66 0 0 0-5.54.45l.07-11.34c1.76.13 4.84.19 7.05.19 4.15-.06 6.61-2.52 6.61-5 0-3.52-3.84-5.66-9.26-5.66a29.22 29.22 0 0 0-13.34 3.52V86.53c3.59-1.77 9.25-2.9 14.92-2.9 14.92 0 21 8.12 21 15.68a12.35 12.35 0 0 1-7.05 11.52 13.35 13.35 0 0 1 9.32 13c0 8.94-7.68 18.13-23.55 18.13-6.17 0-12.4-1.38-16.3-4zm38.69 17.93l7.55-20h11.46l-11.1 20zm21.16-30.59c0-11.65 3.77-29 21.78-29s22 17.37 22 29-4.09 28.9-22 28.9-21.78-17.31-21.78-28.9zM654.52 129c6.05 0 7.94-6.54 7.94-16.24s-1.83-16.37-7.94-16.37h-.06c-6 0-8.06 6.67-8.06 16.37s2.08 16.24 8.06 16.24zm26-16.16c0-11.65 3.78-29 21.78-29s22 17.37 22 29-4.1 28.9-22 28.9-21.78-17.31-21.78-28.9zM702.36 129c6 0 7.94-6.54 7.94-16.24s-1.83-16.37-7.94-16.37h-.06c-6 0-8.06 6.67-8.06 16.37S696.32 129 702.3 129zm26-16.16c0-11.65 3.78-29 21.78-29s22 17.37 22 29-4.09 28.9-22 28.9-21.78-17.31-21.78-28.9zM750.21 129c6 0 7.93-6.54 7.93-16.24s-1.83-16.37-7.93-16.37h-.07c-6 0-8.06 6.67-8.06 16.37s2.08 16.24 8.06 16.24zm61.64 1.61h2.65c6.83-.06 7-.43 7-3.2v-8.8h-31.38v23H779V84.08h53.62v45.12c0 11-2.65 12.25-17 12.37zm-11.76-36.07h-10v13.18h10zm21.42 0h-10.27v13.18h10.27zm-363.58 10.18a5.17 5.17 0 0 1-4.54-2.06 10 10 0 0 1-3.12 3l-.76-1.1a8.53 8.53 0 0 0 3.24-3v-5.84h-2.94v-1.26H454v7.08a4.07 4.07 0 0 0 3.94 1.92h10.62l-.46 1.28zm-5.1-13a29 29 0 0 0-2.8-3.7l1-.8a38.62 38.62 0 0 1 2.78 3.68zm10.9 9.48h.34c2 0 2.1-.28 2.1-1.1V99h-3.76v3.16h-1.22V99h-4v3.44H456V91.56h4.94a29.33 29.33 0 0 0-2.92-1.4l1-.72c.82.42 1.78 1 2.6 1.5a14.81 14.81 0 0 0 3.48-2.3h-9.28v-1.12h10.94v1.06a14.1 14.1 0 0 1-4.24 3h4.94V100c0 1.68-.22 2.36-3.1 2.42zm-2.54-8.54h-4v2.06h4zm0 3.12h-4v2.12h4zm5-3.12h-3.76v2.06h3.76zm0 3.12h-3.76v2.12h3.76zm22.28-1.4v-3.46h-14.92v3.46h-1.26v-4.62h4.18a18.79 18.79 0 0 0-1.72-2l1.14-.54a18.24 18.24 0 0 1 2 2.54h2.54v-3h1.26v3h2.44a10 10 0 0 0 2-2.57l1.14.47a12 12 0 0 1-1.52 2.1h4v4.62zm-1.1 5.62h-5.74v5.62h-1.24V100h-5.62v4.66h-1.3V98.8h6.92v-1.72h-5.18v-4.62h11.58v4.62h-5.16v1.72h7v3.14c0 2.14-1 2.6-3.84 2.62l-.52-1.2h.86c2 0 2.26-.38 2.26-1.3zm-1.82-6.4h-9.1v2.32h9.1zM496 105.62V93.86a18.16 18.16 0 0 1-2 2.62l-.54-1.42a20.46 20.46 0 0 0 4.5-8.38l1.2.38a20.73 20.73 0 0 1-2 5v13.6zm14.64 0v-1.32h-9.52v1.32h-1.22V92.5h3.56v-3.38h-4v-1.24h13.08v1.24h-4.26v3.38h3.6v13.12zm-7.14-11.9h-2.38v9.36h2.38zm3.54-4.6h-2.36v3.38H507zm0 4.6h-2.36v9.36H507zm3.6 0h-2.44v9.36h2.44zm9.03 11.9v-12a31 31 0 0 1-3 6.72l-.74-1.3a30 30 0 0 0 3.52-7.3h-2.7v-1.22h2.92v-3.8h1.24v3.8h2.62v1.18h-2.4a25 25 0 0 0 2.7 4l-.7 1.36a35.1 35.1 0 0 1-2.22-4.24v12.78zm12.38 0v-1.06h-5.9v1.06h-1.26V98c-.5.2-1 .38-1.54.54l-.48-1.18a16.7 16.7 0 0 0 5.6-2.78 14.13 14.13 0 0 1-2.72-3.58 13.18 13.18 0 0 1-1.88 2.32l-.78-1.06a14.91 14.91 0 0 0 3.48-5.57l1.26.25a18.53 18.53 0 0 1-.82 1.88h6.26V90a12.57 12.57 0 0 1-3 4.64 18.11 18.11 0 0 0 4.7 2.54l-.54 1.16a18.58 18.58 0 0 1-5-2.94 16.28 16.28 0 0 1-4.16 2.52h8.1v7.74zm0-6.56h-5.9v4.32h5.9zm-5.58-9a13.5 13.5 0 0 0 2.84 3.8 10.05 10.05 0 0 0 2.62-3.8zm-77.64 42.6a9.36 9.36 0 0 0 5.53 1.92c3 0 4.32-1.73 4.32-3.25s-1.09-2.68-3.16-2.8h-.95a11.42 11.42 0 0 0-1.63.09v-3.53c.7.07 1.65.07 2.11.07a2.67 2.67 0 0 0 2.84-2.47c0-.28 0-2.3-3.46-2.3a9.42 9.42 0 0 0-4.93 1.52V118a12.84 12.84 0 0 1 5.23-1.06c5.34 0 7 3 7 5.55a4.65 4.65 0 0 1-2.28 4.24 5 5 0 0 1 3.25 4.84c0 2.84-2.14 6.71-8.53 6.71a10 10 0 0 1-5.39-1.4zm12.48 6.39l2.58-7h3.91l-3.79 7zM476 124.33c4.46 0 7.06 2.71 7.06 6.83a7 7 0 0 1-7.22 7.11c-3.93 0-7.6-2.67-7.6-10v-1.28c.19-5.66 3.11-10 8.72-10a14.09 14.09 0 0 1 4.43.78v4a10 10 0 0 0-4.48-1.25c-3.12 0-4.77 2.34-4.95 5.28a6.43 6.43 0 0 1 3.95-1.47zm0 3.37a3.57 3.57 0 0 0-3.75 3.06 3.7 3.7 0 0 0 3.58 3.89 3.57 3.57 0 0 0 3.47-3.51 3.14 3.14 0 0 0-3.3-3.44zm7.63-.07c0-4.63 1.47-10.67 7.67-10.67s7.72 6 7.72 10.67-1.56 10.67-7.72 10.67-7.67-6.07-7.67-10.67zm11.3 0c0-3.41-.77-6.92-3.63-6.92s-3.65 3.51-3.65 6.92.82 6.91 3.65 6.91 3.63-3.54 3.63-6.94zm4.39 0c0-4.63 1.46-10.67 7.66-10.67s7.72 6 7.72 10.67-1.56 10.67-7.7 10.67-7.68-6.07-7.68-10.67zm11.29 0c0-3.41-.77-6.92-3.63-6.92s-3.64 3.51-3.64 6.92.81 6.91 3.64 6.91 3.63-3.54 3.63-6.94zm17.39 7.48h1c2.5 0 2.54-.11 2.54-1.27V130h-11.9v8.53h-3.39v-20.67h18.67v16c0 4-.52 4.6-5.67 4.69zm-4.22-13.94h-4.12v5.47h4.12zm7.77 0h-4.36v5.47h4.36z"/><path opacity=".5" fill="#f2f2f2" d="M549.74 106.48v14.28l10.07-7.14-10.07-7.14z"/><path class="cls-4" d="M160.54 97.43l-2.91-2.9-2.9 2.9-1.1-1.08 2.92-2.91-2.92-2.91 1.09-1.09 2.91 2.91 2.91-2.91 1.09 1.09-2.92 2.91 2.92 2.91zM206.77 87v17.35h-20.81V87h-3.47v20.82h27.75V87h-3.47zm-24.28-6.93h27.75v3.47h-27.75zM236 93.29v5.28h-3.1v-4.79c0-1.31-.63-1.94-1.66-1.94a1.8 1.8 0 0 0-1.41.76v5.97h-3.09v-4.79c0-1.31-.65-1.94-1.66-1.94a1.75 1.75 0 0 0-1.39.82v5.91h-3.09v-9.25h3.09v.55A3.25 3.25 0 0 1 226 89a3.58 3.58 0 0 1 2.84 1.24 4.53 4.53 0 0 1 3.32-1.24c2.22 0 3.84 1.66 3.84 4.29zm11.6.65a5 5 0 1 1-5-4.83 4.8 4.8 0 0 1 5 4.83zm-2.91 0a2.09 2.09 0 1 0-4.18 0 2.1 2.1 0 1 0 4.18 0zm7.68 3.88c0 2.84-.9 4.5-4.56 4.58l-.26-2.57c1.35-.14 1.71-.54 1.71-1.61v-8.9h3.11zM249 86.14a1.81 1.81 0 0 1 3.62 0 1.81 1.81 0 0 1-3.62 0zm5.28 0a1.81 1.81 0 1 1 1.81 1.73 1.76 1.76 0 0 1-1.81-1.73zm3.37 12.43h-3.09v-9.25h3.09zm17.48-5.28v5.28H272v-4.79c0-1.31-.63-1.94-1.65-1.94a1.82 1.82 0 0 0-1.42.76v5.97h-3.03v-4.79c0-1.31-.64-1.94-1.65-1.94a1.76 1.76 0 0 0-1.4.82v5.91h-3.08v-9.25h3.08v.55a3.28 3.28 0 0 1 2.31-.83 3.61 3.61 0 0 1 2.84 1.24 4.51 4.51 0 0 1 3.28-1.28c2.21 0 3.85 1.66 3.85 4.29zm11.59.65a5 5 0 1 1-5-4.83 4.81 4.81 0 0 1 5 4.83zm-2.92 0a2.09 2.09 0 1 0-4.17 0 2.09 2.09 0 1 0 4.17 0zm24.82-.65v5.27h-3.1v-4.77c0-1.31-.63-1.94-1.65-1.94a1.8 1.8 0 0 0-1.41.76v5.95h-3.08v-4.77c0-1.31-.64-1.94-1.65-1.94a1.75 1.75 0 0 0-1.39.82v5.89h-3.04v-9.22h3.08v.55a3.27 3.27 0 0 1 2.3-.83 3.6 3.6 0 0 1 2.83 1.23 4.52 4.52 0 0 1 3.27-1.23c2.22 0 3.84 1.61 3.84 4.23zm11.78 5.27h-3.08V98a4.57 4.57 0 0 1-2.53.71 4.81 4.81 0 1 1 2.53-8.92v-.49h3.08zm-3.08-3.2v-2.85a2.4 2.4 0 0 0-1.92-.87 2.29 2.29 0 0 0 0 4.58 2.36 2.36 0 0 0 1.92-.86zM332 93.29v5.27h-3v-4.77c0-1.31-.67-1.94-1.67-1.94a2.36 2.36 0 0 0-1.71.93v5.78h-3.08v-9.22h3.08V90a3.91 3.91 0 0 1 2.54-.91c2.29-.03 3.84 1.58 3.84 4.2zm11.82 5.11c0 2.89-2.05 4.56-4.94 4.56s-4.82-1.59-5-4h3a1.71 1.71 0 0 0 1.93 1.39 1.76 1.76 0 0 0 1.87-1.9v-.87a4.89 4.89 0 0 1-2.51.64 4.61 4.61 0 0 1 0-9.21 4.71 4.71 0 0 1 2.51.68v-.36h3.07zm-3.07-3.47v-2.55a2.4 2.4 0 0 0-1.9-.85 2.1 2.1 0 0 0-2.17 2.22 2.14 2.14 0 0 0 2.17 2 2.43 2.43 0 0 0 1.9-.82zm14.95 3.63h-3.08V98a4.57 4.57 0 0 1-2.53.71 4.81 4.81 0 1 1 2.53-8.92v-.49h3.08zm-3.08-3.2v-2.85a2.39 2.39 0 0 0-1.92-.87 2.29 2.29 0 0 0 0 4.58 2.35 2.35 0 0 0 1.92-.86zM72.3 85.85a14.18 14.18 0 0 0-9.45-3.23c-10 0-16.72 7.68-16.72 7.68l1.91 3s1.05.09.49-1.69a11.53 11.53 0 0 1 3.27-3.55v20.15c-.79.22-1.84.64-1.12 1.36h5.47c.73-.73-.41-1.16-1.11-1.36v-4.76a24.18 24.18 0 0 0 7.81 1.55 14.74 14.74 0 0 0 9.2-3 10.08 10.08 0 0 0 4-8 10.67 10.67 0 0 0-3.75-8.15zm-2.91 14.54a9.7 9.7 0 0 1-6.88 2.68 17.42 17.42 0 0 1-7.51-1.46V86.5a14 14 0 0 1 7.47-2.18 9.28 9.28 0 0 1 7 2.88A9.75 9.75 0 0 1 72 94a8.83 8.83 0 0 1-2.61 6.39z"/><rect class="cls-4" x="78.84" y="82.62" width="2.91" height="22.4" rx=".9" ry=".9"/><rect class="cls-4" x="107.99" y="82.62" width="2.91" height="22.4" rx=".9" ry=".9"/><path class="cls-4" d="M136.24 82.62h-1c-.81 0-1 .11-1.41.84s-8.44 16.75-8.44 16.75l-8.49-16.75c-.36-.73-.59-.84-1.41-.84h-1c-.77 0-1.18.34-.75 1.21s10.38 20.39 10.38 20.39a1.38 1.38 0 0 0 2.51 0s10-19.53 10.39-20.39-.02-1.21-.78-1.21zm-35.04 21.65a1.6 1.6 0 0 0 1.54.75h1.67c1 0 .68-.48.38-.87-.74-1-8.07-10.3-8.07-10.3s7.59-9.38 8.34-10.36c.3-.39.67-.87-.39-.87H103a1.6 1.6 0 0 0-1.54.75c-.42.54-6.59 8.13-6.59 8.13s-6.18-7.59-6.6-8.13a1.62 1.62 0 0 0-1.54-.75h-1.68c-1 0-.68.48-.38.87.74 1 8.35 10.36 8.35 10.36s-7.56 9.32-8.3 10.3c-.3.39-.67.87.38.87h1.67a1.6 1.6 0 0 0 1.54-.75c.42-.53 6.56-8.07 6.56-8.07zM80.29 74A2.26 2.26 0 0 0 78 76.3a2.26 2.26 0 0 0 .62 1.7 2.28 2.28 0 0 0 1.67.66 2.26 2.26 0 0 0 2.32-2.32 2.28 2.28 0 0 0-.61-1.71 2.26 2.26 0 0 0-1.71-.63zm29.16 0a2.26 2.26 0 0 0-2.33 2.33 2.26 2.26 0 0 0 .66 1.66 2.28 2.28 0 0 0 1.67.66 2.26 2.26 0 0 0 2.32-2.32 2.28 2.28 0 0 0-.66-1.67 2.26 2.26 0 0 0-1.66-.66z"/></g></svg>