<svg xmlns="http://www.w3.org/2000/svg" viewBox="0 0 350 240"><defs><style>.cls-1{fill:#00a0e9}.cls-2{fill:#f2f2f2}</style></defs><g id="elements"><path class="cls-1" d="M0 0h350v240H0z"/><path class="cls-2" d="M135.9 47.35l-2.72-2.73-2.73 2.73-1-1 2.74-2.72-2.74-2.74 1-1 2.74 2.73 2.72-2.73 1 1-2.74 2.74 2.74 2.72zm43.9-11.84v16.28h-19.54V35.51H157v19.54h26.06V35.51h-3.26zM157 28.99h26.05v3.26H157zm50.25 12.41v5h-2.92v-4.53c0-1.24-.59-1.83-1.56-1.83a1.7 1.7 0 0 0-1.32.72v5.64h-2.9v-4.53c0-1.24-.61-1.83-1.56-1.83a1.66 1.66 0 0 0-1.31.77v5.55h-2.9v-8.68h2.9v.52a3.07 3.07 0 0 1 2.17-.79 3.4 3.4 0 0 1 2.66 1.17 4.24 4.24 0 0 1 3.08-1.17c2.12 0 3.66 1.52 3.66 3.99zm10.88.6a4.71 4.71 0 0 1-9.42 0 4.71 4.71 0 0 1 9.42 0zm-2.74 0a2 2 0 1 0-3.92 0 2 2 0 1 0 3.92 0zm7.21 3.66c0 2.67-.84 4.23-4.28 4.3l-.25-2.42c1.27-.12 1.61-.5 1.61-1.5v-8.36h2.92zm-3.17-11a1.7 1.7 0 1 1 1.7 1.63 1.65 1.65 0 0 1-1.7-1.6zm4.96.03a1.7 1.7 0 1 1 1.7 1.63 1.64 1.64 0 0 1-1.7-1.63zm3.16 11.67h-2.89v-8.68h2.89zM244 41.4v5h-2.91v-4.53c0-1.24-.59-1.83-1.56-1.83a1.7 1.7 0 0 0-1.33.72v5.64h-2.9v-4.53c0-1.24-.61-1.83-1.55-1.83a1.66 1.66 0 0 0-1.31.77v5.55h-2.9v-8.68h2.9v.52a3.06 3.06 0 0 1 2.16-.79 3.41 3.41 0 0 1 2.67 1.17 4.22 4.22 0 0 1 3.08-1.17c2.07 0 3.65 1.52 3.65 3.99zm10.84.6a4.71 4.71 0 0 1-9.41 0 4.71 4.71 0 0 1 9.41 0zm-2.74 0a2 2 0 1 0-3.92 0 2 2 0 1 0 3.92 0zm23.3-.59v4.94h-2.91v-4.48c0-1.23-.59-1.82-1.55-1.82a1.67 1.67 0 0 0-1.32.72v5.58h-2.89v-4.48c0-1.23-.6-1.82-1.55-1.82a1.65 1.65 0 0 0-1.3.77v5.53H261V37.7h2.89v.52a3 3 0 0 1 2.16-.79 3.41 3.41 0 0 1 2.66 1.16 4.21 4.21 0 0 1 3.06-1.16c2.09 0 3.63 1.57 3.63 3.98zm11.05 4.94h-2.89v-.48a4.3 4.3 0 0 1-2.37.66 4.52 4.52 0 0 1 0-9 4.3 4.3 0 0 1 2.37.66v-.49h2.89zm-2.89-3v-2.67a2.22 2.22 0 0 0-1.8-.82 2.15 2.15 0 0 0 0 4.3 2.21 2.21 0 0 0 1.8-.81zm13.82-1.94v4.94h-2.9v-4.48c0-1.23-.63-1.82-1.57-1.82a2.24 2.24 0 0 0-1.61.88v5.42h-2.89V37.7h2.89v.59a3.72 3.72 0 0 1 2.39-.86c2.2 0 3.69 1.57 3.69 3.98zm11.06 4.8c0 2.71-1.93 4.28-4.64 4.28s-4.53-1.5-4.67-3.75H302a1.62 1.62 0 0 0 1.8 1.26 1.65 1.65 0 0 0 1.75-1.78v-.82a4.6 4.6 0 0 1-2.35.61 4.33 4.33 0 0 1 0-8.65 4.42 4.42 0 0 1 2.35.64v-.3h2.89zm-2.89-3.27v-2.39a2.27 2.27 0 0 0-1.78-.8 2 2 0 0 0-2 2.09 2 2 0 0 0 2 1.91 2.25 2.25 0 0 0 1.78-.81zm14.04 3.41h-2.89v-.48a4.52 4.52 0 1 1 0-7.71v-.46h2.89zm-2.89-3v-2.67a2.23 2.23 0 0 0-1.8-.82 2.15 2.15 0 0 0 0 4.3 2.22 2.22 0 0 0 1.8-.81zM54.58 35a13.31 13.31 0 0 0-8.87-3C36.37 32 30 39.15 30 39.15L31.81 42s1 .08.47-1.59a10.67 10.67 0 0 1 3.07-3.33V56c-.75.21-1.74.61-1.06 1.28h5.14c.68-.68-.39-1.09-1-1.28v-4.48a22.73 22.73 0 0 0 7.32 1.38 13.8 13.8 0 0 0 8.64-2.79 9.45 9.45 0 0 0 3.71-7.48A10.09 10.09 0 0 0 54.58 35zm-2.72 13.62a9.15 9.15 0 0 1-6.46 2.52 16.38 16.38 0 0 1-7-1.37V35.58a13.26 13.26 0 0 1 7-2 8.68 8.68 0 0 1 6.6 2.66 9.19 9.19 0 0 1 2.34 6.34 8.29 8.29 0 0 1-2.48 6.04z"/><rect class="cls-2" x="60.72" y="31.95" width="2.73" height="21.03" rx=".84" ry=".84"/><rect class="cls-2" x="88.09" y="31.95" width="2.73" height="21.03" rx=".84" ry=".84"/><path class="cls-2" d="M114.6 32h-1c-.76 0-1 .1-1.32.79l-7.92 15.71-7.91-15.76c-.35-.69-.56-.79-1.32-.79h-1c-.71 0-1.1.32-.7 1.13l9.75 19.14a1.33 1.33 0 0 0 1.18.75 1.35 1.35 0 0 0 1.18-.75s9.34-18.33 9.74-19.14.04-1.08-.68-1.08zM81.71 52.27a1.51 1.51 0 0 0 1.44.7h1.57c1 0 .64-.45.36-.81-.7-.92-7.58-9.67-7.58-9.67s7.13-8.81 7.83-9.73c.28-.36.67-.76-.33-.76h-1.6a1.53 1.53 0 0 0-1.45.7c-.39.5-6.19 7.63-6.19 7.63s-5.8-7.13-6.19-7.63a1.53 1.53 0 0 0-1.45-.7h-1.57c-1 0-.64.45-.36.81.7.92 7.84 9.73 7.84 9.73s-7.09 8.75-7.79 9.67c-.28.36-.63.81.36.81h1.57a1.51 1.51 0 0 0 1.44-.7l6.15-7.58zM62.08 23.82A2.15 2.15 0 0 0 59.89 26a2.12 2.12 0 0 0 .63 1.56 2.08 2.08 0 0 0 1.56.62 2.19 2.19 0 1 0 0-4.37zm27.37 0a2.12 2.12 0 0 0-1.56.63A2.21 2.21 0 0 0 91 27.57a2.19 2.19 0 0 0-1.56-3.75zm193.29 146.69a11.44 11.44 0 0 1 0-14.69h1.62a10.7 10.7 0 0 0 0 14.69zm5.04-.1v-7.2a16.94 16.94 0 0 1-1.92 4.53l-.69-1.54a20 20 0 0 0 2.44-4.71h-2.08v-1.25h2.25v-2.36l-1.95.18-.3-1.35a15.28 15.28 0 0 0 5-.8l.59 1.24a16.13 16.13 0 0 1-2 .53v2.56h2v1.25h-1.83a19 19 0 0 0 2.2 3.24l-.65 1.4a22.53 22.53 0 0 1-1.73-3.55v7.83zm9.29-.41c-1 0-1.33-.37-1.33-1.4v-4.32h-1c-.14 2.34-.73 4.83-3.58 6.16l-.8-1.16c2.54-1.08 3-3.12 3.11-5h-1.74v-5.41h1.83a17.36 17.36 0 0 0-1.37-2.38l1.15-.53a26.85 26.85 0 0 1 1.39 2.38l-1 .53h2.09a13.73 13.73 0 0 0 1.33-3l1.31.4a15.46 15.46 0 0 1-1.34 2.59H299v5.41h-2v3.8c0 .61 0 .66.46.66h.34c.56 0 .66-.22.73-2.63l1.19.63c-.16 2.61-.4 3.26-1.82 3.26zm.62-9.9H293v3h4.7zm6.51 8.69h1.12c1.41-.07 1.72-.44 1.75-3v-1.26H304a9.54 9.54 0 0 1-2.49 5.87l-1.06-1a9 9 0 0 0 2.39-6.47v-1.14h-1.54v-5.31h7.07v5.31h-4.27v1.09a3 3 0 0 1 0 .42h4.3v2.38c-.1 4-.57 4.49-3.68 4.49zm2.89-11.08h-4.55v2.79h4.55zm2.7 9v-9.84h1.26v9.84zm.74 2.36h.77c1.49 0 1.69-.13 1.69-.86v-12.32h1.29v12.4c0 1.86-.65 2.12-3.23 2.12zm5.37 1.44a10.7 10.7 0 0 0 0-14.69h1.62a11.44 11.44 0 0 1 0 14.69zm-35.03-28.93l8.88-21.53h1.73l-8.89 21.53zm29.66-4.87v5.89H309v-5.89h-12.29v-1.51h4.47v-6.55H309v-4.42h-6.89a18.57 18.57 0 0 1-4.43 4.86l-1.12-1.22a19.51 19.51 0 0 0 6.21-8.38l1.56.37c-.39 1-.83 1.93-1.34 2.9h15.92v1.47h-8.33v4.42h7.31v1.49h-7.31v5.06h9.26v1.51zm-1.53-6.57h-6.23v5.06H309zM30.14 155.88A24.45 24.45 0 0 0 43.73 160c8 0 9.79-4.53 9.79-6.51 0-2.16-1.47-4.25-4.41-5.21a16.09 16.09 0 0 0-4.53-.51 35.93 35.93 0 0 0-5 .39l.07-10.16c1.59.11 4.36.17 6.34.17 3.74-.06 5.95-2.26 5.95-4.53 0-3.17-3.45-5.1-8.32-5.1a26.24 26.24 0 0 0-12 3.18v-10.89c3.23-1.58 8.32-2.6 13.42-2.6 13.42 0 18.86 7.3 18.86 14.1a11.09 11.09 0 0 1-6.35 10.36 12 12 0 0 1 8.39 11.72c0 8-6.91 16.31-21.18 16.31-5.55 0-11.16-1.25-14.67-3.57zM64.94 172l6.79-18H82l-10 18zM84 144.5c0-10.47 3.4-26.1 19.59-26.1s19.82 15.63 19.82 26.1-3.68 26-19.82 26S84 154.92 84 144.5zm19.65 14.56c5.43 0 7.13-5.89 7.13-14.61s-1.64-14.73-7.13-14.73h-.06c-5.38 0-7.25 6-7.25 14.73s1.87 14.61 7.25 14.61zM127 144.5c0-10.47 3.4-26.1 19.59-26.1s19.82 15.63 19.82 26.1-3.68 26-19.82 26-19.59-15.58-19.59-26zm19.65 14.56c5.44 0 7.14-5.89 7.14-14.61s-1.65-14.73-7.14-14.73h-.06c-5.38 0-7.24 6-7.24 14.73s1.86 14.61 7.24 14.61zM170 144.5c0-10.47 3.39-26.1 19.59-26.1s19.82 15.63 19.82 26.1-3.68 26-19.82 26-19.59-15.58-19.59-26zm19.64 14.56c5.44 0 7.14-5.89 7.14-14.61s-1.64-14.73-7.14-14.73h-.05c-5.38 0-7.25 6-7.25 14.73s1.87 14.61 7.25 14.61zm55.36 1.43h2.38c6.15-.06 6.32-.39 6.32-2.88v-7.92h-28.29v20.65h-10v-51.72h48.23v40.59c0 9.86-2.38 11-15.29 11.13zM234.38 128h-9v11.85h9zm19.28 0h-9.25v11.85h9.25zM114.67 94.28a3.91 3.91 0 0 1-3.44-1.57 7.48 7.48 0 0 1-2.37 2.29l-.58-.83a6.52 6.52 0 0 0 2.46-2.28v-4.45h-2.23v-1h3.17v5.37a3.11 3.11 0 0 0 3 1.46h8.07l-.35 1zm-3.87-9.84a22 22 0 0 0-2.12-2.81l.76-.61a31.45 31.45 0 0 1 2.11 2.79zm8.28 7.19h.25c1.55 0 1.6-.21 1.6-.83v-.87h-2.86v2.4h-.92v-2.4h-3.07v2.61h-.91v-8.25h3.75a21.14 21.14 0 0 0-2.22-1.07l.73-.54c.63.31 1.35.74 2 1.13a11.2 11.2 0 0 0 2.64-1.74h-7v-.85h8.31V82a10.85 10.85 0 0 1-3.22 2.27h3.75v6.43c0 1.28-.17 1.79-2.35 1.84zm-1.93-6.48h-3.07v1.56h3.07zm0 2.37h-3.07v1.61h3.07zm3.78-2.37h-2.86v1.56h2.86zm0 2.37h-2.86v1.61h2.86zm15.41-1.09V83.8H125v2.63h-1v-3.51h3.17a14.43 14.43 0 0 0-1.31-1.52l.87-.41a14.05 14.05 0 0 1 1.49 1.93h1.93v-2.31h.95v2.31h1.9a7.91 7.91 0 0 0 1.52-1.92l.86.34a8.85 8.85 0 0 1-1.15 1.6h3.07v3.51zm-.84 4.26h-4.35V95h-.94v-4.31h-4.27v3.54h-1v-4.45h5.26v-1.3h-3.94V85h8.79v3.51h-3.91v1.3h5.3v2.39c0 1.62-.75 2-2.92 2l-.39-.91h.65c1.5 0 1.71-.29 1.71-1zm-1.38-4.86h-6.91v1.76h6.91zM140.5 95v-9a14.07 14.07 0 0 1-1.5 2l-.41-1.08a15.62 15.62 0 0 0 3.42-6.36l.91.29a16.14 16.14 0 0 1-1.5 3.76V95zm11.11 0v-1h-7.22v1h-.93V85h2.7v-2.57h-3v-.94H153v.94h-3.23V85h2.73v10zm-5.42-9h-1.8v7h1.8zm2.69-3.49h-1.79V85h1.79zm0 3.49h-1.79v7h1.79zm2.73 0h-1.85v7h1.85zm5.39 9v-9.18a23.43 23.43 0 0 1-2.28 5.1l-.56-1a22.66 22.66 0 0 0 2.67-5.54h-2v-.88H157v-2.89h.94v2.89h2v.89h-1.84a18.09 18.09 0 0 0 2.05 3l-.54 1a28.53 28.53 0 0 1-1.68-3.22V95zm9.4 0v-.81h-4.48V95h-1v-5.83a11.56 11.56 0 0 1-1.17.41l-.36-.89a12.92 12.92 0 0 0 4.25-2.11 10.89 10.89 0 0 1-2.07-2.69 9.91 9.91 0 0 1-1.42 1.76l-.6-.8a11.5 11.5 0 0 0 2.65-4.22l1 .18a14.08 14.08 0 0 1-.62 1.43h4.75v.83a9.35 9.35 0 0 1-2.33 3.52 13.56 13.56 0 0 0 3.57 1.93l-.41.88a13.9 13.9 0 0 1-3.82-2.23 12.39 12.39 0 0 1-3.16 1.91h6.15V95zm0-5h-4.48v3.28h4.48zm-4.24-6.82a10.17 10.17 0 0 0 2.16 2.89 7.62 7.62 0 0 0 2-2.89zm14.25 8.46a6.6 6.6 0 0 0 3.81 1.29c2.08 0 3-1.17 3-2.19s-.75-1.81-2.18-1.89h-.65a7.37 7.37 0 0 0-1.12.07v-2.41h1.45a1.82 1.82 0 0 0 2-1.66c0-.19 0-1.56-2.39-1.56a6.54 6.54 0 0 0-3.39 1v-2.58a9 9 0 0 1 3.6-.72c3.68 0 4.83 2.05 4.83 3.75a3.11 3.11 0 0 1-1.57 2.86 3.37 3.37 0 0 1 2.2 3.27c0 1.92-1.47 4.53-5.87 4.53a7 7 0 0 1-3.71-1zm9.59 4.64l2-5.3h3l-2.95 5.3zM197.6 86c3.07 0 4.86 1.82 4.86 4.61a4.79 4.79 0 0 1-5 4.8c-2.71 0-5.24-1.81-5.24-6.74v-.86c.13-3.83 2.14-6.77 6-6.77a10.06 10.06 0 0 1 3.06.52v2.71a7.12 7.12 0 0 0-3.09-.85c-2.15 0-3.28 1.59-3.41 3.57a4.46 4.46 0 0 1 2.72-1zm0 2.27a2.44 2.44 0 0 0-2.58 2.07 2.52 2.52 0 0 0 2.5 2.66 2.43 2.43 0 0 0 2.38-2.37 2.13 2.13 0 0 0-2.27-2.34zm6.24-.03c0-3.12 1-7.2 5.28-7.2s5.31 4.08 5.31 7.2-1.07 7.21-5.31 7.21-5.28-4.1-5.28-7.21zm7.78 0c0-2.31-.53-4.68-2.5-4.68s-2.51 2.37-2.51 4.68.56 4.65 2.51 4.65 2.5-2.36 2.5-4.66zm3.98 0c0-3.12 1-7.2 5.28-7.2s5.31 4.08 5.31 7.2-1.07 7.21-5.31 7.21-5.28-4.1-5.28-7.21zm7.78 0c0-2.31-.53-4.68-2.5-4.68s-2.51 2.37-2.51 4.68.55 4.65 2.51 4.65 2.5-2.36 2.5-4.66zm12.87 5.06h.69c1.71 0 1.74-.08 1.74-.86v-2.55h-8.15v5.73h-2.32v-13.9H241v10.75c0 2.69-.36 3.09-3.88 3.15zm-2.9-9.36h-2.82v3.67h2.82zm5.33 0h-3v3.67h3z"/><path opacity=".5" fill="#f2f2f2" d="M179.87 103.83h-9.74l4.87 6.88 4.87-6.88z"/><path class="cls-2" d="M30.02 185.01h133.4v24.95H30.02z"/><path class="cls-1" d="M39.71 204.4v-7.9h1.37v.19a2.44 2.44 0 0 1 1.22-.33 2.67 2.67 0 1 1 0 5.33 2.65 2.65 0 0 1-1.22-.31v3zm1.37-4.4a1.55 1.55 0 0 0 1.21.53 1.38 1.38 0 0 0 1.36-1.53 1.37 1.37 0 0 0-1.36-1.47 1.54 1.54 0 0 0-1.21.54zm5.39-4.51a.89.89 0 0 1-.91-.88.9.9 0 0 1 .91-.9.92.92 0 0 1 .93.9.91.91 0 0 1-.93.88zm-.73 6v-5h1.48v5zm5.64.04l-1.05-1.61-1.06 1.61h-1.5l1.8-2.64L48 196.5h1.49l.82 1.35.85-1.35h1.5l-1.57 2.39 1.76 2.64zm2.81-6.04a.9.9 0 0 1-.92-.88.92.92 0 1 1 .92.88zm-.74 6v-5h1.48v5zm3.88.04l-1.83-5H57s.7 2.46.77 2.74.15.78.19 1c.05-.23.18-.81.23-1s.75-2.73.75-2.73h1.46l-1.83 5zm4.11-1.17c3.82-.69 4.82-2.53 5.12-4.55l-5.43.08v-1.39h5.14a1.21 1.21 0 0 0 0 .19 1.39 1.39 0 0 0 1.41 1.48 2.18 2.18 0 0 0 .43 0 6.63 6.63 0 0 1-5.6 5.54zm6.29-4.43a1.24 1.24 0 0 1 0-2.48 1.24 1.24 0 0 1 0 2.48zm0-1.75a.51.51 0 1 0 .51.51.51.51 0 0 0-.51-.51zm9.27 3.31a8.5 8.5 0 0 1-6.84 4v-7.37h1.52c0 .22-.09 4-.11 5.57a6.86 6.86 0 0 0 4.46-3.6zm7.71 4.26a37 37 0 0 0-6.8-1.57l.59-1.28a37 37 0 0 1 6.64 1.39zm-.15-5.5a35.37 35.37 0 0 0-6.08-.78l.42-1.26a42.48 42.48 0 0 1 6 .64zm-.67 2.5a27.9 27.9 0 0 0-5.25-1l.52-1.25a30.69 30.69 0 0 1 5.16.86zm6.49-.61a4.3 4.3 0 0 1-3.17 3.54l-1.16-1.19c2.62-.73 3-2.08 3-3.77v-.52h1.51v1.42a2.8 2.8 0 0 0 1.91-2c-1.4 0-5.46.05-6 .05v-1.32H94a4.72 4.72 0 0 1-2.93 4.65zm10.85 3.42c-.12-.33-.25-.64-.39-1-2.25.36-4.58.62-6.14.78l-.23-1.47 1-.07a36.87 36.87 0 0 0 1.77-5.79l1.59.36a46.32 46.32 0 0 1-1.83 5.35c1.19-.11 2.34-.24 3.21-.34a12.15 12.15 0 0 0-1.35-2l1.35-.62a17.05 17.05 0 0 1 2.42 4.06zm1.89-.5v-1.36h4.68l.25-3.72h-4.39v-1.33h6l-.31 5h1.55v1.36zm8.39-2.6V197H119v1.43zm14.65-1.55c0 2.61-.66 4-3.75 4.81l-1.12-1.23c2.91-.42 3.46-1.59 3.48-3.58h-2V199h-1.41v-2.09h-1.67v-1.3h1.67V194h1.41v1.6h2V194h.77a8.41 8.41 0 0 1 .34 1.38h.33v.27h1.65v1.3zm-.11-1.73a8 8 0 0 0-.42-1.52l.74-.09a8.44 8.44 0 0 1 .45 1.46zm1-.14a7.9 7.9 0 0 0-.45-1.49l.74-.08a6.4 6.4 0 0 1 .47 1.42zm1.39 3.42V197H136v1.43zm13.2 2.17l-.56.33a11.67 11.67 0 0 0-.89-1.49l.81-.47h-1v-1.2h2.72v-.57h-2.91v-.8h-.62v1.4a6.13 6.13 0 0 0 .62-.29v1.3c-.17.09-.38.19-.62.29v2.69H138v-2.19c-.46.15-.89.29-1.23.37l-.2-1.38c.43-.09.93-.21 1.43-.36v-1.83h-.34a8 8 0 0 1-.19 1.17l-.93-.54a11.21 11.21 0 0 0 .3-2.62v-.18l.93.1v.85h.23v-1.6h1.24v1.6h.62v.83h1.78v-.57h-1.52v-1.18h1.52v-.68H143v.68h1.61v1.18H143v.57h1.81v1.19h-.69v.57h.62v1.2h-.62v1.22c0 1.29-.1 1.57-2 1.6zm1.15-1.6h-1.37a8 8 0 0 1 .81 1.26l-.4.23h.37c.59 0 .59 0 .59-.44zm9.66 2.79a9.71 9.71 0 0 1-2.8-1.22l.6-.66H148l.64.67a8.06 8.06 0 0 1-2.77 1.21l-.72-1.21a8.18 8.18 0 0 0 2.16-.67h-2.24v-1.18h.61v-4.35h1.82v-.77h1.27v.77h.72v-.77h1.27v.77h1.85v4.35h.58v1.18h-2.27a8.42 8.42 0 0 0 2.22.7zm-4.8-6.26h-.71v1h.71zm0 2.07h-.71v1.13h.71zm1.84-2.07h-.72v1h.72zm0 2.07h-.72v1.13h.72zm1.85-2.07h-.74v1h.74zm0 2.07h-.74v1.13h.74z"/><path class="cls-2" d="M180.49 193.56V189a.9.9 0 0 0-1-.86 1 1 0 0 0-.95.62 1.48 1.48 0 0 1 0 .21v4.61h-1.79V189a.9.9 0 0 0-.95-.9 1 1 0 0 0-.92.62v4.82h-1.8v-6.75h1.8v.21a2.25 2.25 0 0 1 1.16-.35 2.52 2.52 0 0 1 1.88.72 2.66 2.66 0 0 1 1.78-.72 2.28 2.28 0 0 1 2.53 2.26v4.67zm6.99.21a3.59 3.59 0 1 1 3.61-3.58 3.5 3.5 0 0 1-3.61 3.58zm1.82-3.58a1.82 1.82 0 1 0-1.82 2 1.82 1.82 0 0 0 1.82-2zm1.98 7.34v-1.72c1 0 1.52-.64 1.52-1.91v-7.08h1.95V194a3.2 3.2 0 0 1-3.41 3.54zm2.47-12.07a1.21 1.21 0 0 1-1.23-1.18 1.24 1.24 0 1 1 1.23 1.18zm4.13 0a1.21 1.21 0 0 1-1.23-1.18 1.24 1.24 0 1 1 1.23 1.18zm-1 8.11v-6.75h2v6.75zm11.36 0V189a.89.89 0 0 0-1-.86 1 1 0 0 0-.95.61 1.48 1.48 0 0 1 0 .21v4.62h-1.8V189a.89.89 0 0 0-1-.89 1 1 0 0 0-.92.61v4.83h-1.79v-6.75h1.79v.2a2.28 2.28 0 0 1 1.16-.35 2.5 2.5 0 0 1 1.88.72 2.67 2.67 0 0 1 1.79-.72 2.29 2.29 0 0 1 2.53 2.26v4.68zm6.99.21a3.59 3.59 0 1 1 3.6-3.59 3.5 3.5 0 0 1-3.6 3.59zm1.82-3.59a1.83 1.83 0 0 0-1.82-2 2 2 0 1 0 1.82 2zm3.11.81v-1.61h4.44V191zm13.44 2.57V189a.9.9 0 0 0-.95-.86 1 1 0 0 0-1 .62 1.34 1.34 0 0 1 0 .2v4.62h-1.8V189a.89.89 0 0 0-.95-.89 1 1 0 0 0-.92.62v4.82h-1.8v-6.75H228v.2a2.28 2.28 0 0 1 1.16-.35 2.56 2.56 0 0 1 1.88.72 2.71 2.71 0 0 1 1.79-.71 2.28 2.28 0 0 1 2.53 2.26v4.67zm7.73 0v-.37a2.65 2.65 0 0 1-1.66.5c-1.53 0-2.68-.82-2.68-2.16s1.39-2.31 3.25-2.31a5.27 5.27 0 0 1 1.09.12V189c0-.62-.69-.85-1.55-.85a6.32 6.32 0 0 0-2 .35v-1.59a7.35 7.35 0 0 1 2.08-.3c1.6 0 3.2.53 3.2 2.11v4.87zm0-2.72a2.6 2.6 0 0 0-1.2-.24c-.52 0-1.49.09-1.5.87 0 .47.4.8 1.16.8a2.2 2.2 0 0 0 1.54-.52zm7.85 2.72v-4.51a1 1 0 0 0-1.12-1 1.18 1.18 0 0 0-1.22.88v4.65H245v-6.75h1.83v.2a2.75 2.75 0 0 1 1.51-.46 2.38 2.38 0 0 1 2.67 2.36v4.65zm5.95-1.71a.7.7 0 0 0-.57.58c0 .27.18.33 1.07.33h1.33a5.89 5.89 0 0 1 1.23.1 1.92 1.92 0 0 1 1.62 1.9c0 1.43-1.47 2.74-3.82 2.74-1.87 0-3.52-.91-3.52-2.44a1.64 1.64 0 0 1 .86-1.48 1.42 1.42 0 0 1-.5-1.1 1.51 1.51 0 0 1 .73-1.32 2.38 2.38 0 0 1-.68-1.75 2.81 2.81 0 0 1 3.09-2.81 3.78 3.78 0 0 1 1.2.22c.44-.58 1.12-.8 2.31-.8h.09v1.87h-.24a2.2 2.2 0 0 0-.76.09 2.4 2.4 0 0 1 .48 1.42 2.55 2.55 0 0 1-2.84 2.56 5.12 5.12 0 0 1-1.07-.08zm1.17 2.34h-1.39a.75.75 0 0 0-.69.75c0 .66.84 1.07 1.71 1.07s2-.45 2-1.18c.07-.57-.39-.64-1.63-.64zm-.3-6.08a1.24 1.24 0 0 0-1.41 1.26c0 .67.47 1.14 1.44 1.14a1.21 1.21 0 0 0 1.32-1.18 1.23 1.23 0 0 0-1.35-1.22zm9.29 5.46v-.38a2.63 2.63 0 0 1-1.66.5c-1.53 0-2.67-.82-2.67-2.16s1.39-2.3 3.24-2.3a5.15 5.15 0 0 1 1.09.11V189c0-.61-.68-.85-1.54-.85a6.22 6.22 0 0 0-2 .35v-1.59a7.29 7.29 0 0 1 2.08-.3c1.6 0 3.2.54 3.2 2.11v4.88zm0-2.73a2.66 2.66 0 0 0-1.19-.23c-.52 0-1.5.08-1.5.87 0 .46.4.8 1.16.8a2.23 2.23 0 0 0 1.53-.52zm12.46 2.73a16.17 16.17 0 0 1-2.72.23c-1.43 0-4.33 0-4.33-2.31 0-1.45 1.91-2.49 3.09-3-.17-.48-.44-.53-.68-.53-.64 0-1.34.39-2.44 1.63-.25.31-.57.65-.86 1l-1.41-1.12a17 17 0 0 0 2.76-3.56h-2.47v-1.55h3.17a11.49 11.49 0 0 0 .47-1.22l2 .3c-.14.33-.27.63-.41.92h3.4v1.55h-4.16c-.24.37-.48.72-.71 1a2.46 2.46 0 0 1 1.1-.38 1.74 1.74 0 0 1 1.87 1.27c1.22-.43 2.38-.75 3-.93l.69 1.66a33.52 33.52 0 0 0-3.45.88v1.86l-1.78.13c0-.37 0-.86.07-1.33-.72.35-1.48.82-1.48 1.35s1.68.68 2.2.68a16.29 16.29 0 0 0 3.2-.35zm-98.23 14.78l-.76.44a14.8 14.8 0 0 0-1.19-2l1.11-.59h-1.27v-1.61h3.66v-.76h-3.92v-1.08h-.82v1.88a5.85 5.85 0 0 0 .83-.39V206a8.22 8.22 0 0 1-.83.39V210h-1.67v-2.94c-.62.2-1.2.39-1.65.49l-.26-1.85c.56-.12 1.24-.28 1.91-.48v-2.46h-.45a10.9 10.9 0 0 1-.26 1.57l-1.25-.72a15.49 15.49 0 0 0 .41-3.52v-.24l1.25.13v1.15h.34V199h1.67v2.16h.83v1.11h2.39v-.76h-2.09v-1.59h2.05V199h1.74v.92h2.17v1.59h-2.17v.76h2.44v1.6h-.93v.76h.83v1.61h-.83v1.65c0 1.73-.14 2.1-2.67 2.14zm1.55-2.16h-1.84a12.55 12.55 0 0 1 1.09 1.69l-.55.32h.5c.79 0 .8-.06.8-.59zm6.36 3.61l-.59-1.75h.89c.7 0 .83-.08.86-1.29V206h-1.39a7.57 7.57 0 0 1-1.61 4l-1.5-1.34a6.53 6.53 0 0 0 1.49-4.39v-.61h-1v-4.35h5.62v4.35h-3v.72h3v2.47c-.07 2.41-.25 2.92-2.29 3zm1.11-8.92h-2.21V202h2.21zm2.32 6.26v-7.33h1.55v7.33zm.55 1h.5c1.23 0 1.23-.07 1.23-.62V199h1.74v8.9c0 1.75-.24 2.11-2.8 2.11zm13.46 1.85v-.52h-4.09v.52h-1.58v-7.9h1.8V201h-1.82v-1.22a12.06 12.06 0 0 1-.64 1.87V210h-1.74v-5.56a5 5 0 0 1-.68.82l-.38-2.43a10.37 10.37 0 0 0 1.81-3.84l1.63.44h7.59V201h-2.08v1.06h1.79V210zm-3.52-6.35h-.58v4.3h.58zm1.75 0h-.55v4.3h.55zm0-2.59h-.55v1.06h.55zm1.78 2.59h-.57v4.3h.57zm10.81 6.35v-.35h-2.1v.35h-1.75v-4.14a2 2 0 0 1-.26.09l-.21-.85-.28.8a8.4 8.4 0 0 1-.57-1.64V210h-1.74v-5.2a12.17 12.17 0 0 1-.88 2.73l-.62-2.36a10.15 10.15 0 0 0 1.39-2.73h-1.1v-1.66h1.21V199h1.74v1.8h.9v.2a5.17 5.17 0 0 0 1.66-2l1.74.29c-.07.14-.14.3-.23.45h3v1.46a8.09 8.09 0 0 1-1.39 2.25 9.13 9.13 0 0 0 2.13.75l-.53 1.72-.34-.1V210zm-3.95-6a7.46 7.46 0 0 0 1.63-.57 6.69 6.69 0 0 1-.8-1 6.54 6.54 0 0 1-.61.52l-.54-1.25v.76h-.81a4.81 4.81 0 0 0 1.16 1.5zm4.74 1.44a10.46 10.46 0 0 1-1.73-.95 8.6 8.6 0 0 1-1.8.95zm-.79 1.4h-2.1v1.31h2.1zm-2.05-5.56a5.36 5.36 0 0 0 1.09 1.28 4.79 4.79 0 0 0 1-1.28zM228 209.6a7.94 7.94 0 0 1-.85 0c-2.58 0-5.54-1-5.54-3.9a5 5 0 0 1 2.14-3.83l-4.64.25-.06-1.85c2.44 0 7.14-.07 10-.22l.16 1.73a8.91 8.91 0 0 0-2.7.3c-1.63.59-3 1.94-3 3.43s1.41 2.19 3.62 2.19c.39 0 .81 0 1.25-.07zm-.45-4.51a12.23 12.23 0 0 0-1.22-2l1-.45a12.2 12.2 0 0 1 1.25 2zm1.59-.67a12.52 12.52 0 0 0-1.27-2l.94-.45a11.12 11.12 0 0 1 1.27 1.89zm10.69 4.7a17.56 17.56 0 0 1-3.94.46c-5.06 0-5.07-2.36-5.07-2.67a2.41 2.41 0 0 1 .74-1.65l1.62.6a1.13 1.13 0 0 0-.48.8c0 .73 1.32 1.05 2.91 1.05a15.49 15.49 0 0 0 4.13-.59zm-8.43-8.7c1.28-.12 2.59-.2 3.93-.2.71 0 1.44 0 2.17.07a7 7 0 0 1 .5 1.36s.84-.19 1-.21v.85a27.39 27.39 0 0 0-4-.29 23.53 23.53 0 0 0-3.57.25zm6.86.86a12.61 12.61 0 0 0-.85-2.13l1.1-.19a10.57 10.57 0 0 1 .89 2.08zm1.68-.32a13.87 13.87 0 0 0-.91-2.07l1.08-.2a11 11 0 0 1 .93 2zm9.53 8.8a3.26 3.26 0 0 1-2.76-1.14 3.84 3.84 0 0 1-1 1.37l-1.39-1.25a3.94 3.94 0 0 0 1.46-3l1.62.23a7.25 7.25 0 0 1-.23 1.08 2.1 2.1 0 0 0 .75.73v-2.23h-2.72v-.3a4.24 4.24 0 0 1-.82.37v1.91c0 1.83-.16 2.28-2.39 2.35l-.49-1.81c1.06 0 1.13-.06 1.13-.64v-1.3c-.38.12-.71.22-1 .28l-.27-1.8c.32-.05.79-.17 1.27-.3v-1.82h-1.09v-1.69h1.09V199h1.75v1.87h.87v1.69h-.87v1.31c.32-.1.61-.21.87-.32v.6h7.05v1.48h-2.61v.57h2.23v1.29h-2.23v.71h.07l2.66-.09-.46 1.69zm-3.86-6v-4.48h6.25v4.48zm4.51-3.24h-2.76v.5h2.76zm0 1.47h-2.76v.54h2.76zm5.69 6.55V210h-1.74v-5.69a4.92 4.92 0 0 1-.78.83l-.42-2.41a9.35 9.35 0 0 0 2-3.74l1.82.38a12.52 12.52 0 0 1-.93 2.48v6.68a9.75 9.75 0 0 0 2.52-2l1.33 1.14A11.84 11.84 0 0 1 257 210zm.36-2.16v-1.74h1.35v-2h-1.14v-1.73h1.14V199h1.76v1.95h1.3V199h1.75v1.95h1.19v1.73h-1.19v2h1.45v1.73zm4.41-3.73h-1.3v2h1.3zm2.18 7.34a16.14 16.14 0 0 1-2.68-2.29l1.31-1.15a13.77 13.77 0 0 0 2.62 2zm7.84-3.07c-.45 1-1.37 2.45-2.77 2.45a2.33 2.33 0 0 1-1.78-.9c-.83-1-1.1-3.39-1.1-6 0-.75 0-1.51.06-2.27l2 .07a22.49 22.49 0 0 0-.19 3c0 1.09 0 3.66 1 4h.18c.33 0 .61-.41 1.31-2.27zm2.74 1.41c0-2.16-.76-5.61-2.53-7.41l1.75-.71c1.73 1.75 2.7 5.31 2.7 7.22v.11zm2.88.97a43.24 43.24 0 0 0 2.3-7.12h-2.1v-1.65h2.36c.11-.52.2-1 .27-1.42l2 .16c-.08.4-.19.83-.29 1.26h2.79v1.64h-3.08a59 59 0 0 1-2.29 7.56zm10.34.22a11.38 11.38 0 0 1-2.12.18 11.49 11.49 0 0 1-2.1-.18 2.22 2.22 0 0 1-1.91-2.06 1.69 1.69 0 0 1 .38-1.07l1.65.29a.84.84 0 0 0-.32.55c0 .55.87.69 1.93.69a11.09 11.09 0 0 0 2.38-.28zm-.2-4.91a17.62 17.62 0 0 0-2.78-.25 9.26 9.26 0 0 0-2.05.21l-.13-1.68a19.27 19.27 0 0 1 2.6-.18 23.25 23.25 0 0 1 2.54.15zm11.2 1.1a6.87 6.87 0 0 1-6.1 4.07c-1.59 0-3-.71-3-3.21v-.09c0-1.65 0-4.79.05-7l2 .07c-.08 1.46-.19 4.77-.19 6.7 0 1.15.41 1.66 1.33 1.66 1.93 0 3.5-1.65 4.42-3.72zm9.89 3.96a12.63 12.63 0 0 0-2.53-1.89 2.72 2.72 0 0 1-2.91 2c-2.39 0-3.11-1.23-3.11-2.26 0-1.3 1.17-2.21 3.29-2.21a6.77 6.77 0 0 1 1 .07v-.85h-3.93V203h3.9v-.93h-4.21v-1.56h4.17v-1.29H305v1.3h3.42v1.58H305v.9h3.07v1.59H305v1.32a13.13 13.13 0 0 1 3.39 2zm-5.45-2.76c-.41 0-1.26.11-1.26.62s.6.65 1.17.65a1.21 1.21 0 0 0 1.33-1.1 4.42 4.42 0 0 0-1.24-.17zm14.85-4.7v1.75a3.17 3.17 0 0 1 .42 1.7c0 1.94-1.1 3.74-4.66 4.3l-1.3-1.67c2.32-.24 3.34-.76 3.84-1.33a2.63 2.63 0 0 1-.82.15h-.11c-1.46 0-2.52-.74-2.51-2.06 0-1.7 1.62-2.28 2.73-2.3a3.81 3.81 0 0 1 .59.05v-.58h-5.2v-1.67H315v-1.29h1.87v1.29h3.56v1.65zm-1.7 2.27a1.28 1.28 0 0 0-1-.4.85.85 0 0 0-.87.84.73.73 0 0 0 .82.72.93.93 0 0 0 1-.95z"/></g></svg>