<svg xmlns="http://www.w3.org/2000/svg" width="24" height="24" viewBox="0 0 24 24"><defs><style>.a{fill:#666}</style></defs><path class="a" d="M12 2.16c3.204 0 3.6 0 4.8.072a6.636 6.636 0 0 1 2.232.408 3.72 3.72 0 0 1 1.368.96 3.72 3.72 0 0 1 .96 1.32 6.636 6.636 0 0 1 .408 2.28c0 1.26.072 1.644.072 4.8s0 3.6-.072 4.8a6.636 6.636 0 0 1-.408 2.232 3.972 3.972 0 0 1-2.28 2.28 6.636 6.636 0 0 1-2.232.408c-1.26 0-1.644.072-4.8.072s-3.6 0-4.8-.072a6.636 6.636 0 0 1-2.328-.36 3.72 3.72 0 0 1-1.32-.96 3.72 3.72 0 0 1-.96-1.32 6.636 6.636 0 0 1-.408-2.28c0-1.26-.072-1.644-.072-4.8s0-3.6.072-4.8a6.636 6.636 0 0 1 .408-2.28A3.72 3.72 0 0 1 3.6 3.6a3.72 3.72 0 0 1 1.32-.96 6.636 6.636 0 0 1 2.28-.408c1.2-.06 1.596-.072 4.8-.072M12 0C8.736 0 8.328 0 7.056.072A8.808 8.808 0 0 0 4.14.624a5.88 5.88 0 0 0-2.124 1.392A5.88 5.88 0 0 0 .624 4.14a8.808 8.808 0 0 0-.552 2.916C0 8.328 0 8.736 0 12s0 3.672.072 4.944a8.808 8.808 0 0 0 .552 2.916 5.88 5.88 0 0 0 1.38 2.124 5.88 5.88 0 0 0 2.124 1.38 8.808 8.808 0 0 0 2.916.552C8.328 24 8.736 24 12 24s3.672 0 4.944-.072a8.808 8.808 0 0 0 2.916-.552 6.132 6.132 0 0 0 3.504-3.504 8.808 8.808 0 0 0 .552-2.916C24 15.672 24 15.264 24 12s0-3.672-.072-4.944a8.808 8.808 0 0 0-.552-2.916 5.88 5.88 0 0 0-1.38-2.124A5.88 5.88 0 0 0 19.86.624a8.808 8.808 0 0 0-2.916-.552C15.672 0 15.264 0 12 0z"/><path class="a" d="M12 5.832A6.168 6.168 0 1 0 18.168 12 6.168 6.168 0 0 0 12 5.832zm0 10.164A3.996 3.996 0 1 1 15.996 12 3.996 3.996 0 0 1 12 15.996z"/><circle class="a" cx="18.408" cy="5.592" r="1.44"/></svg>