<svg xmlns="http://www.w3.org/2000/svg" width="24" height="24" viewBox="0 0 24 24"><path d="M24 4.664a10.114 10.114 0 0 1-2.829.769 4.879 4.879 0 0 0 2.163-2.691 9.804 9.804 0 0 1-3.128 1.177 4.972 4.972 0 0 0-3.59-1.53 4.854 4.854 0 0 0-4.797 5.959 14.057 14.057 0 0 1-10.15-5.07 4.75 4.75 0 0 0-.666 2.435 4.837 4.837 0 0 0 2.19 4.044 4.986 4.986 0 0 1-2.23-.608v.064a4.879 4.879 0 0 0 3.95 4.757 4.95 4.95 0 0 1-1.296.168 5.038 5.038 0 0 1-.927-.088 4.92 4.92 0 0 0 4.6 3.371 9.998 9.998 0 0 1-6.116 2.074A11.319 11.319 0 0 1 0 19.431a14.08 14.08 0 0 0 7.548 2.178 13.806 13.806 0 0 0 14.009-13.6l.001-.206q0-.312-.014-.625A9.961 9.961 0 0 0 24 4.664z" fill="#666"/></svg>