<svg xmlns="http://www.w3.org/2000/svg" width="360" height="483" viewBox="0 0 360 483"><path d="M44.787 429.66h7.7c-.553 6.29-5.737 10.569-12.482 10.569-7.7 0-13.337-5.335-13.337-12.784 0-7.399 5.637-12.734 13.337-12.734 6.745 0 11.929 4.278 12.482 10.57h-7.7a4.547 4.547 0 0 0-4.782-3.674c-3.472 0-5.586 2.516-5.586 5.838s2.114 5.89 5.586 5.89a4.548 4.548 0 0 0 4.782-3.675zm37.443-2.215c0 7.449-5.536 12.985-13.237 12.985-7.7 0-13.236-5.536-13.236-12.985 0-7.348 5.536-12.734 13.236-12.734 7.701 0 13.238 5.386 13.238 12.734zm-7.7.05a5.516 5.516 0 1 0-11.023 0c0 3.272 2.215 5.89 5.537 5.89 3.271 0 5.486-2.618 5.486-5.89zm52.643-1.761v13.942h-8.204v-12.633c0-3.473-1.66-5.134-4.378-5.134a4.76 4.76 0 0 0-3.725 2.013c.05.605.1 1.208.1 1.812v13.942h-8.153v-12.633c0-3.473-1.711-5.134-4.379-5.134a4.613 4.613 0 0 0-3.674 2.164v15.603h-8.154v-24.41h8.154v1.459a8.592 8.592 0 0 1 6.09-2.215 9.594 9.594 0 0 1 7.5 3.272 11.921 11.921 0 0 1 8.656-3.272c5.839 0 10.167 4.278 10.167 11.224zm4.677-18.874a4.786 4.786 0 1 1 4.782 4.58 4.623 4.623 0 0 1-4.782-4.58zm8.909 32.816h-8.154v-24.41h8.154zm30.901-13.942v13.942h-8.203v-12.633c0-3.473-1.762-5.134-4.43-5.134a6.282 6.282 0 0 0-4.529 2.466v15.3h-8.154v-24.41h8.154v1.661a10.437 10.437 0 0 1 6.744-2.416c6.19 0 10.419 4.278 10.419 11.224zm31.102 13.539c0 7.65-5.436 12.08-13.086 12.08-7.399 0-12.784-4.229-13.187-10.57h8.053c.403 2.265 2.114 3.674 5.134 3.674a4.65 4.65 0 0 0 4.933-5.033v-2.315a12.872 12.872 0 0 1-6.644 1.711 12.052 12.052 0 0 1-12.13-11.878c0-7.449 5.537-12.532 12.13-12.532a12.425 12.425 0 0 1 6.644 1.811v-.955h8.153zm-8.153-9.21v-6.745a6.392 6.392 0 0 0-5.034-2.264 5.564 5.564 0 0 0-5.737 5.888 5.673 5.673 0 0 0 5.737 5.385 6.392 6.392 0 0 0 5.034-2.264zm32.056 1.257c.352 2.115 2.113 3.071 4.68 3.071 2.165 0 3.473-.654 3.473-1.71 0-.807-.754-1.461-2.365-1.712l-4.933-.856c-4.227-.705-7.147-3.07-7.147-7.348 0-5.134 4.38-8.154 10.872-8.154 5.184 0 11.073 2.013 11.425 8.455h-7.248c-.15-1.862-1.862-2.717-4.126-2.717-2.115 0-3.07.805-3.07 1.761 0 .805.603 1.561 2.516 1.913l4.58.754c4.58.856 7.6 3.07 7.6 7.4 0 5.637-5.084 8.253-11.425 8.253-6.393 0-11.576-2.667-12.08-9.16zm45.9-3.875c0 7.449-5.536 12.985-13.236 12.985-7.702 0-13.238-5.536-13.238-12.985 0-7.348 5.536-12.734 13.238-12.734 7.7 0 13.236 5.386 13.236 12.734zm-7.7.05a5.516 5.516 0 1 0-11.023 0c0 3.272 2.215 5.89 5.536 5.89 3.272 0 5.487-2.618 5.487-5.89zm37.442-.05c0 7.449-5.536 12.985-13.236 12.985-7.702 0-13.238-5.536-13.238-12.985 0-7.348 5.536-12.734 13.238-12.734 7.7 0 13.236 5.386 13.236 12.734zm-7.7.05a5.516 5.516 0 1 0-11.023 0c0 3.272 2.215 5.89 5.536 5.89 3.272 0 5.487-2.618 5.487-5.89zM332 425.734v13.942h-8.204v-12.633c0-3.473-1.76-5.134-4.429-5.134a6.284 6.284 0 0 0-4.53 2.466v15.3h-8.153v-24.41h8.153v1.661a10.441 10.441 0 0 1 6.745-2.416c6.19 0 10.418 4.278 10.418 11.224zm-.125-369.623v275.625H28.125V56.111H0v303.75h360V56.111h-28.125zM0 0h360v28.125H0z" fill="#fff"/></svg>