<svg xmlns="http://www.w3.org/2000/svg" width="29.968" height="24" viewBox="0 0 29.968 24"><path d="M29.983 2.84a12.629 12.629 0 0 1-3.532.96 6.092 6.092 0 0 0 2.7-3.36 12.243 12.243 0 0 1-3.905 1.47A6.208 6.208 0 0 0 20.762 0a6.061 6.061 0 0 0-5.99 7.44A17.553 17.553 0 0 1 2.099 1.11a5.932 5.932 0 0 0-.833 3.04A6.04 6.04 0 0 0 4.002 9.2a6.225 6.225 0 0 1-2.785-.76v.08a6.092 6.092 0 0 0 4.933 5.94 6.182 6.182 0 0 1-1.62.21 6.287 6.287 0 0 1-1.157-.11 6.143 6.143 0 0 0 5.744 4.21 12.485 12.485 0 0 1-7.637 2.59 14.154 14.154 0 0 1-1.466-.08A17.581 17.581 0 0 0 9.439 24 17.24 17.24 0 0 0 26.934 6.76q0-.39-.018-.78a12.439 12.439 0 0 0 3.067-3.14z" fill="#666" fill-rule="evenodd"/></svg>