<svg xmlns="http://www.w3.org/2000/svg" width="220" height="96" viewBox="0 0 220 96"><defs><style>.a{fill:#666}</style></defs><path class="a" d="M45.446 30.68v9.48h-5.58v-8.59c0-2.361-1.129-3.49-2.977-3.49a3.236 3.236 0 0 0-2.533 1.368c.035.411.069.822.069 1.232v9.48H28.88v-8.59c0-2.361-1.164-3.49-2.978-3.49a3.137 3.137 0 0 0-2.499 1.47v10.61H17.86V23.562h5.544v.993a5.844 5.844 0 0 1 4.142-1.506 6.524 6.524 0 0 1 5.1 2.225 8.105 8.105 0 0 1 5.886-2.225c3.97 0 6.914 2.91 6.914 7.632zm22.063 1.164a8.642 8.642 0 0 1-9.002 8.83 8.642 8.642 0 0 1-9-8.83c0-4.997 3.764-8.659 9-8.659s9.002 3.662 9.002 8.659zm-5.237.034a3.75 3.75 0 1 0-7.495 0 3.756 3.756 0 1 0 7.495 0zm15.116 6.948c0 5.1-1.608 8.077-8.18 8.214l-.479-4.62c2.43-.24 3.08-.959 3.08-2.875V23.56h5.58zm-6.058-20.98a3.254 3.254 0 1 1 3.252 3.114 3.164 3.164 0 0 1-3.252-3.114zM17.356 52.08a3.255 3.255 0 1 1 3.25 3.115 3.143 3.143 0 0 1-3.25-3.114zm6.057 22.315H17.87v-16.6h5.544zm33.137-9.48v9.48h-5.58v-8.59c0-2.362-1.13-3.491-2.977-3.491a3.237 3.237 0 0 0-2.533 1.369c.034.41.068.821.068 1.232v9.48h-5.544v-8.59c0-2.362-1.164-3.491-2.978-3.491a3.138 3.138 0 0 0-2.498 1.472v10.61h-5.545v-16.6h5.545v.993a5.845 5.845 0 0 1 4.141-1.506 6.523 6.523 0 0 1 5.1 2.225 8.104 8.104 0 0 1 5.887-2.225c3.97 0 6.913 2.909 6.913 7.632zm22.274 1.164a8.642 8.642 0 0 1-9.002 8.83 8.642 8.642 0 0 1-9.001-8.83c0-4.997 3.765-8.66 9.001-8.66s9.002 3.663 9.002 8.66zm-5.237.034a3.75 3.75 0 1 0-7.495 0 3.756 3.756 0 1 0 7.495 0z"/><path class="a" d="M87.8 14.881V87.8H7.441V14.881H0v80.36h95.241v-80.36H87.8z"/><path fill="#ff8873" d="M0 0h23.81v7.441H0z"/><path fill="#ffc476" d="M23.81 0h23.81v7.441H23.81z"/><path fill="#4fb2a3" d="M47.62 0h23.81v7.441H47.62z"/><path fill="#588bba" d="M71.43 0h23.81v7.441H71.43z"/><path class="a" d="M138.49 39.429c0 2.703-1.92 4.268-4.622 4.268-2.614 0-4.517-1.494-4.66-3.734h2.846a1.608 1.608 0 0 0 1.814 1.298 1.643 1.643 0 0 0 1.742-1.778v-.818a4.551 4.551 0 0 1-2.347.604 4.312 4.312 0 0 1 0-8.625 4.385 4.385 0 0 1 2.347.64v-.337h2.88zm-2.88-3.254v-2.383a2.258 2.258 0 0 0-1.778-.8 1.965 1.965 0 0 0-2.027 2.08 2.004 2.004 0 0 0 2.027 1.903 2.26 2.26 0 0 0 1.778-.8zm13.875-.925a4.678 4.678 0 0 1-9.354 0 4.68 4.68 0 0 1 9.354 0zm-2.72.017a1.949 1.949 0 1 0-3.894 0 1.952 1.952 0 1 0 3.894 0zm13.322-.017a4.678 4.678 0 0 1-9.354 0 4.68 4.68 0 0 1 9.354 0zm-2.72.017a1.949 1.949 0 1 0-3.895 0 1.952 1.952 0 1 0 3.894 0zm13.5 4.304h-2.881v-.444a4.308 4.308 0 0 1-2.365.658 4.504 4.504 0 0 1 0-8.999 4.3 4.3 0 0 1 2.365.658v-4.499h2.881zm-2.881-2.952v-2.667a2.229 2.229 0 0 0-1.796-.818 2.146 2.146 0 0 0 0 4.285 2.212 2.212 0 0 0 1.796-.8zm16.632-5.673v2.472h-3.04v6.153h-2.881v-6.153h-2.116v-2.472h2.116v-1.031a3.701 3.701 0 0 1 3.787-4.037 8.747 8.747 0 0 1 2.294.32l-.39 2.4a6.858 6.858 0 0 0-1.317-.16 1.36 1.36 0 0 0-1.494 1.406v1.102zm9.997 4.304a4.678 4.678 0 0 1-9.354 0 4.68 4.68 0 0 1 9.354 0zm-2.72.017a1.949 1.949 0 1 0-3.895 0 1.952 1.952 0 1 0 3.894 0zm13.305-.622v4.926h-2.9v-4.464c0-1.226-.622-1.813-1.565-1.813a2.221 2.221 0 0 0-1.6.87v5.407h-2.881v-8.625h2.88v.587a3.692 3.692 0 0 1 2.384-.853c2.186 0 3.68 1.51 3.68 3.965zm8.806 4.766a7.58 7.58 0 0 1-2.614.427c-2.081 0-3.468-1.53-3.468-3.86v-2.56h-1.69v-2.472h1.69v-2.934h2.88v2.934h2.935v2.472h-2.934v2.472a1.189 1.189 0 0 0 1.352 1.299 8.619 8.619 0 0 0 1.528-.214zM138.49 60.777c0 2.702-1.92 4.268-4.622 4.268-2.614 0-4.517-1.494-4.66-3.735h2.846a1.608 1.608 0 0 0 1.814 1.298 1.643 1.643 0 0 0 1.742-1.778v-.818a4.551 4.551 0 0 1-2.347.605 4.312 4.312 0 0 1 0-8.625 4.385 4.385 0 0 1 2.347.64v-.338h2.88zm-2.88-3.255V55.14a2.258 2.258 0 0 0-1.778-.801 1.965 1.965 0 0 0-2.027 2.081 2.004 2.004 0 0 0 2.027 1.902 2.26 2.26 0 0 0 1.778-.8zm13.875-.924a4.678 4.678 0 0 1-9.354 0 4.68 4.68 0 0 1 9.354 0zm-2.72.017a1.949 1.949 0 1 0-3.894 0 1.952 1.952 0 1 0 3.894 0zm13.322-.017a4.678 4.678 0 0 1-9.354 0 4.68 4.68 0 0 1 9.354 0zm-2.72.017a1.949 1.949 0 1 0-3.895 0 1.952 1.952 0 1 0 3.894 0zm13.5 4.304h-2.881v-.445a4.308 4.308 0 0 1-2.365.658 4.504 4.504 0 0 1 0-8.998 4.3 4.3 0 0 1 2.365.658v-4.499h2.881zm-2.881-2.952V55.3a2.229 2.229 0 0 0-1.796-.818 2.146 2.146 0 0 0 0 4.285 2.212 2.212 0 0 0 1.796-.8zm19.05-1.369a4.372 4.372 0 0 1-4.285 4.499 4.31 4.31 0 0 1-2.365-.658v4.48h-2.88V52.294h2.88v.462a4.31 4.31 0 0 1 2.365-.658 4.361 4.361 0 0 1 4.285 4.5zm-2.827 0a2.056 2.056 0 0 0-2.027-2.152 2.234 2.234 0 0 0-1.796.818v2.667a2.212 2.212 0 0 0 1.796.8 2.04 2.04 0 0 0 2.027-2.133zm10.301-1.708a4.11 4.11 0 0 0-2.97 1.103v4.926h-2.881v-8.625h2.88v.924a4.318 4.318 0 0 1 2.97-1.066zm1.3-5.566a1.69 1.69 0 1 1 1.69 1.618 1.634 1.634 0 0 1-1.69-1.618zm3.148 11.595h-2.88v-8.625h2.88zm8.075-3.539h2.72a4.16 4.16 0 0 1-4.41 3.734 4.513 4.513 0 1 1 0-9.016 4.16 4.16 0 0 1 4.41 3.735h-2.72a1.607 1.607 0 0 0-1.69-1.299 2.074 2.074 0 0 0 0 4.144 1.607 1.607 0 0 0 1.69-1.298zm12.913.018l.018.053h-6.152a1.862 1.862 0 0 0 1.938 1.387 1.485 1.485 0 0 0 1.316-.622h2.845a3.998 3.998 0 0 1-4.197 2.898 4.405 4.405 0 0 1-4.712-4.516 4.337 4.337 0 0 1 4.588-4.5A4.198 4.198 0 0 1 220 56.42a5.982 5.982 0 0 1-.054.978zm-6.17-1.636h3.521a1.599 1.599 0 0 0-1.707-1.44 1.761 1.761 0 0 0-1.814 1.44z"/></svg>