<svg xmlns="http://www.w3.org/2000/svg" width="200" height="35" viewBox="0 0 200 35"><path d="M54.48 12.621h14.651v3.476H58.517v5.186h9.144v3.449h-9.144v9.143H54.48V12.621zm117.617 1.171h3.69v10.591l5.374-5.399h4.759l-6.07 5.855 6.551 9.036h-4.491l-4.813-7.111-1.31 1.281v5.83h-3.69V13.792zm18.519 15.084c.107 2.111 1.658 2.54 3.155 2.54 1.256 0 2.379-.641 2.379-1.818 0-1.365-1.31-1.684-4.224-2.3-2.166-.482-4.439-1.39-4.439-4.117 0-2.861 2.7-4.6 5.963-4.6 3.342 0 6.095 1.71 6.149 4.784h-3.61c-.133-1.522-1.229-2-2.673-2-1.257 0-2.219.561-2.219 1.578 0 .829.695 1.337 1.9 1.578 3.743.775 7 1.549 7 4.918 0 3.234-3.262 4.811-6.257 4.811-3.02 0-6.87-1.041-7.03-5.372zm-33.354-1.697c0 3.573-2.539 7.122-7.861 7.122s-7.859-3.549-7.859-7.122v-1.527c0-3.574 2.54-7.121 7.859-7.121s7.861 3.547 7.861 7.121zm-3.863-1.4c0-2.395-1.458-4.334-4-4.334s-3.994 1.939-3.994 4.334v1.271c0 2.4 1.457 4.334 3.994 4.334s4-1.939 4-4.334zm-37.553-6.795h-4.3v-5.191h-3.716v5.191h-2.567v2.861h2.567v7.912c0 2.861 1.818 4.171 5.293 4.251.506.026 2.014 0 2.716-.022v-3.042a34.01 34.01 0 0 1-1.807.071c-1.979 0-2.486-.535-2.486-2.219v-6.951h4.3zm-14.62.867a5.9 5.9 0 0 0-3.832-1.207 5.437 5.437 0 0 0-3.209.9 6.439 6.439 0 0 0-1.36 1.531v-2.091h-3.769v14.891h3.769v-8.053a5.361 5.361 0 0 1 .417-2.266 2.992 2.992 0 0 1 2.967-1.677 2.471 2.471 0 0 1 2.391 1.146 3.829 3.829 0 0 1 .343 1.8v9.049h3.778V23.857a4.871 4.871 0 0 0-1.491-4.006m63.012 7.406a8.235 8.235 0 0 1 .5-3.683q.9-1.7 3.511-1.7c.132 0 .3 0 .518.014s.455.03.729.061V18.6c-.193-.01-.317-.016-.373-.023s-.123-.008-.2-.008a4.754 4.754 0 0 0-3.161 1.019 8.471 8.471 0 0 0-1.6 2.026v-2.631H160.5v14.892h3.743zm-38.081 6.614l2.306-8.1c.161-.587.454-1.978.615-2.887.187.855.508 2.352.641 2.861L132 33.871h3.625l4.549-14.887h-3.85l-2.03 8.316c-.16.668-.4 2.166-.561 2.914-.134-.668-.4-2.06-.588-2.807l-2.192-8.207h-3.716l-2.193 8.234c-.187.749-.481 2.246-.613 2.834-.107-.642-.375-2.139-.564-2.941l-2-8.341h-3.827l4.522 14.887zm-40.384-6.692c0 3.573-2.539 7.122-7.861 7.122s-7.859-3.549-7.859-7.122v-1.527c0-3.574 2.539-7.121 7.859-7.121s7.861 3.547 7.861 7.121zm-3.863-1.4c0-2.395-1.458-4.334-4-4.334s-3.995 1.939-3.995 4.334v1.271c0 2.4 1.459 4.334 3.995 4.334s4-1.939 4-4.334z" fill="#231815"/><path d="M40.797.172h.001-.001zM20.5 3.73A74.743 74.743 0 0 1 0 .941v32.933h32.976V14.53L40.789 1A74.788 74.788 0 0 1 20.5 3.73" fill="#d70c18"/></svg>